#PARKINGCombined_Meshes_2492_8.obj

v -51.25943 31.36267 25.39697
v -50.9589 31.36268 50.09684
v -51.25899 31.36275 50.39702
v -51.25943 31.36267 25.39697
v -50.95934 31.36267 25.6971
v -50.9589 31.36268 50.09684
v -51.25899 31.36275 50.39702
v -51.25943 28.96267 25.39696
v -51.25943 31.36267 25.39697
v -51.25899 31.36275 50.39702
v -51.25902 28.96268 50.39695
v -51.25943 28.96267 25.39696
v -50.95934 31.36267 25.6971
v -50.9589 28.96268 50.09684
v -50.9589 31.36268 50.09684
v -50.95934 31.36267 25.6971
v -50.95929 28.96267 25.69706
v -50.9589 28.96268 50.09684
v -50.9589 28.96268 50.09684
v -51.25943 28.96267 25.39696
v -51.25902 28.96268 50.39695
v -50.9589 28.96268 50.09684
v -50.95929 28.96267 25.69706
v -51.25943 28.96267 25.39696
v -26.25931 31.36271 25.39699
v -50.95934 31.36267 25.6971
v -51.25943 31.36267 25.39697
v -26.25931 31.36271 25.39699
v -26.55942 31.36271 25.6971
v -50.95934 31.36267 25.6971
v -51.25943 31.36267 25.39697
v -26.25931 28.96271 25.39698
v -26.25931 31.36271 25.39699
v -51.25943 31.36267 25.39697
v -51.25943 28.96267 25.39696
v -26.25931 28.96271 25.39698
v -26.55942 31.36271 25.6971
v -50.95929 28.96267 25.69706
v -50.95934 31.36267 25.6971
v -26.55942 31.36271 25.6971
v -26.55942 28.96271 25.6971
v -50.95929 28.96267 25.69706
v -50.95929 28.96267 25.69706
v -26.25931 28.96271 25.39698
v -51.25943 28.96267 25.39696
v -50.95929 28.96267 25.69706
v -26.55942 28.96271 25.6971
v -26.25931 28.96271 25.39698
v -51.25904 31.36261 50.39688
v -26.55929 31.36268 50.09688
v -26.25927 31.36268 50.39702
v -51.25904 31.36261 50.39688
v -50.9589 31.36268 50.09684
v -26.55929 31.36268 50.09688
v -26.25927 31.36268 50.39702
v -51.25902 28.96268 50.39695
v -51.25904 31.36261 50.39688
v -26.25927 31.36268 50.39702
v -26.2592 28.96268 50.39702
v -51.25902 28.96268 50.39695
v -50.9589 31.36268 50.09684
v -26.5594 28.96268 50.09693
v -26.55929 31.36268 50.09688
v -50.9589 31.36268 50.09684
v -50.9589 28.96268 50.09684
v -26.5594 28.96268 50.09693
v -26.5594 28.96268 50.09693
v -51.25902 28.96268 50.39695
v -26.2592 28.96268 50.39702
v -26.5594 28.96268 50.09693
v -50.9589 28.96268 50.09684
v -51.25902 28.96268 50.39695
v -26.25927 31.36268 50.39702
v -26.55942 31.36271 25.6971
v -26.25931 31.36271 25.39699
v -26.25927 31.36268 50.39702
v -26.55929 31.36268 50.09688
v -26.55942 31.36271 25.6971
v -26.25931 31.36271 25.39699
v -26.2592 28.96268 50.39702
v -26.25927 31.36268 50.39702
v -26.25931 31.36271 25.39699
v -26.25931 28.96271 25.39698
v -26.2592 28.96268 50.39702
v -26.55929 31.36268 50.09688
v -26.55942 28.96271 25.6971
v -26.55942 31.36271 25.6971
v -26.55929 31.36268 50.09688
v -26.5594 28.96268 50.09693
v -26.55942 28.96271 25.6971
v -26.55942 28.96271 25.6971
v -26.2592 28.96268 50.39702
v -26.25931 28.96271 25.39698
v -26.55942 28.96271 25.6971
v -26.5594 28.96268 50.09693
v -26.2592 28.96268 50.39702
v -51.2594 39.14999 25.39698
v -50.52025 39.10675 49.53453
v -51.25897 39.15007 50.39703
v -51.2594 39.14999 25.39698
v -50.39775 39.10675 26.25953
v -50.52025 39.10675 49.53453
v -51.75897 39.15007 50.39703
v -51.75941 36.74998 24.89697
v -51.75941 39.14999 24.89698
v -51.75897 39.15007 50.39703
v -51.75899 36.75001 50.89696
v -51.75941 36.74998 24.89697
v -50.39775 39.10675 26.25953
v -50.5156 37.31805 49.53214
v -50.52025 39.10675 49.53453
v -50.39775 39.10675 26.25953
v -50.39302 37.31824 26.26178
v -50.5156 37.31805 49.53214
v -50.5156 37.31805 49.53214
v -51.25941 36.74998 25.39697
v -51.259 36.74999 50.39696
v -50.5156 37.31805 49.53214
v -50.39302 37.31824 26.26178
v -51.25941 36.74998 25.39697
v -26.25928 39.15002 25.397
v -50.39775 39.10675 26.25953
v -51.2594 39.14999 25.39698
v -26.25928 39.15002 25.397
v -27.12275 39.10675 26.25953
v -50.39775 39.10675 26.25953
v -51.75941 39.14999 24.89698
v -25.75928 36.75004 24.89699
v -25.75928 39.15004 24.897
v -51.75941 39.14999 24.89698
v -51.75941 36.74998 24.89697
v -25.75928 36.75004 24.89699
v -27.12275 39.10675 26.25953
v -50.39302 37.31824 26.26178
v -50.39775 39.10675 26.25953
v -27.12275 39.10675 26.25953
v -27.12275 37.31824 26.26188
v -50.39302 37.31824 26.26178
v -50.39302 37.31824 26.26178
v -26.25928 36.75003 25.39699
v -51.25941 36.74998 25.39697
v -50.39302 37.31824 26.26178
v -27.12275 37.31824 26.26188
v -26.25928 36.75003 25.39699
v -51.25902 39.14993 50.39689
v -27.24525 39.10675 49.53453
v -26.25924 39.14999 50.39703
v -51.25902 39.14993 50.39689
v -50.52025 39.10675 49.53453
v -27.24525 39.10675 49.53453
v -25.75924 39.15002 50.89703
v -51.75899 36.75001 50.89696
v -51.25903 39.14994 50.89689
v -25.75924 39.15002 50.89703
v -25.75918 36.75002 50.89703
v -51.75899 36.75001 50.89696
v -50.52025 39.10675 49.53453
v -27.24533 37.31832 49.53224
v -27.24525 39.10675 49.53453
v -50.52025 39.10675 49.53453
v -50.5156 37.31805 49.53214
v -27.24533 37.31832 49.53224
v -27.24533 37.31832 49.53224
v -51.259 36.74999 50.39696
v -26.25918 36.75 50.39703
v -27.24533 37.31832 49.53224
v -50.5156 37.31805 49.53214
v -51.259 36.74999 50.39696
v -26.25924 39.14999 50.39703
v -27.12275 39.10675 26.25953
v -26.25928 39.15002 25.397
v -26.25924 39.14999 50.39703
v -27.24525 39.10675 49.53453
v -27.12275 39.10675 26.25953
v -25.75928 39.15004 24.897
v -25.75918 36.75002 50.89703
v -25.75924 39.15002 50.89703
v -25.75928 39.15004 24.897
v -25.75928 36.75004 24.89699
v -25.75918 36.75002 50.89703
v -27.24525 39.10675 49.53453
v -27.12275 37.31824 26.26188
v -27.12275 39.10675 26.25953
v -27.24525 39.10675 49.53453
v -27.24533 37.31832 49.53224
v -27.12275 37.31824 26.26188
v -27.12275 37.31824 26.26188
v -26.25918 36.75 50.39703
v -26.25928 36.75003 25.39699
v -27.12275 37.31824 26.26188
v -27.24533 37.31832 49.53224
v -26.25918 36.75 50.39703
v -26.25928 36.75003 25.39699
v -26.25918 36.75 50.39703
v -25.75928 36.75004 24.89699
v -26.25918 36.75 50.39703
v -25.75918 36.75002 50.89703
v -25.75928 36.75004 24.89699
v -26.25928 39.15002 25.397
v -51.2594 39.14999 25.39698
v -25.75928 39.15004 24.897
v -51.2594 39.14999 25.39698
v -51.75941 39.14999 24.89698
v -25.75928 39.15004 24.897
v -51.2594 39.14999 25.39698
v -51.25897 39.15007 50.39703
v -51.75941 39.14999 24.89698
v -51.25897 39.15007 50.39703
v -51.75897 39.15007 50.39703
v -51.75941 39.14999 24.89698
v -51.25941 36.74998 25.39697
v -26.25928 36.75003 25.39699
v -51.75941 36.74998 24.89697
v -26.25928 36.75003 25.39699
v -25.75928 36.75004 24.89699
v -51.75941 36.74998 24.89697
v -26.25918 36.75 50.39703
v -51.259 36.74999 50.39696
v -25.75918 36.75002 50.89703
v -51.259 36.74999 50.39696
v -51.75899 36.75001 50.89696
v -25.75918 36.75002 50.89703
v -26.25924 39.14999 50.39703
v -26.25928 39.15002 25.397
v -25.75924 39.15002 50.89703
v -26.25928 39.15002 25.397
v -25.75928 39.15004 24.897
v -25.75924 39.15002 50.89703
v -51.259 36.74999 50.39696
v -51.25902 39.14993 50.39689
v -51.75899 36.75001 50.89696
v -51.25902 39.14993 50.39689
v -51.25903 39.14994 50.89689
v -51.75899 36.75001 50.89696
v -51.25902 39.14993 50.39689
v -26.25924 39.14999 50.39703
v -51.25903 39.14994 50.89689
v -26.25924 39.14999 50.39703
v -25.75924 39.15002 50.89703
v -51.25903 39.14994 50.89689
v -51.25897 39.15007 50.39703
v -51.259 36.74999 50.39696
v -51.75897 39.15007 50.39703
v -51.259 36.74999 50.39696
v -51.75899 36.75001 50.89696
v -51.75897 39.15007 50.39703
v -51.259 36.74999 50.39696
v -51.25941 36.74998 25.39697
v -51.75899 36.75001 50.89696
v -51.25941 36.74998 25.39697
v -51.75941 36.74998 24.89697
v -51.75899 36.75001 50.89696

vn 8.320808E-05 1 1.430511E-06
vn 8.380413E-05 1 7.712841E-05
vn 0.0002446175 1 -3.33786E-06
vn 8.320808E-05 1 1.430511E-06
vn 1.132488E-06 1 4.053116E-06
vn 8.380413E-05 1 7.712841E-05
vn -1 6.377697E-06 1.692772E-05
vn -1 6.377697E-06 1.692772E-05
vn -1 1.609325E-06 1.740456E-05
vn -1 6.377697E-06 1.692772E-05
vn -1 1.114607E-05 1.645088E-05
vn -1 6.377697E-06 1.692772E-05
vn 1 1.114607E-05 -1.674891E-05
vn 1 1.114607E-05 -1.674891E-05
vn 1 0 -1.782179E-05
vn 1 1.114607E-05 -1.674891E-05
vn 1 2.223253E-05 -1.561642E-05
vn 1 1.114607E-05 -1.674891E-05
vn -2.145767E-06 -1 2.980232E-07
vn -1.609325E-06 -1 -2.384186E-06
vn 1.788139E-07 -1 2.205372E-06
vn -2.145767E-06 -1 2.980232E-07
vn -1.192093E-06 -1 -1.907349E-06
vn -1.609325E-06 -1 -2.384186E-06
vn -2.861023E-06 1 4.649162E-06
vn 1.132488E-06 1 4.053116E-06
vn 8.320808E-05 1 1.430511E-06
vn -2.861023E-06 1 4.649162E-06
vn -4.827976E-06 1 2.384186E-06
vn 1.132488E-06 1 4.053116E-06
vn 7.748604E-07 3.993511E-06 -1
vn 7.748604E-07 3.993511E-06 -1
vn 5.364418E-07 1.609325E-06 -1
vn 7.748604E-07 3.993511E-06 -1
vn 1.013279E-06 6.377697E-06 -1
vn 7.748604E-07 3.993511E-06 -1
vn -7.748604E-07 -9.536743E-06 1
vn -7.748604E-07 -9.536743E-06 1
vn 0 -1.746416E-05 1
vn -7.748604E-07 -9.536743E-06 1
vn -1.549721E-06 -1.609325E-06 1
vn -7.748604E-07 -9.536743E-06 1
vn -1.192093E-06 -1 -1.907349E-06
vn 7.152557E-07 -1 -2.44379E-06
vn -1.609325E-06 -1 -2.384186E-06
vn -1.192093E-06 -1 -1.907349E-06
vn 2.741814E-06 -1 -2.384186E-07
vn 7.152557E-07 -1 -2.44379E-06
vn -1.430511E-06 1 0.0001158714
vn -3.516674E-06 1 7.766485E-05
vn -5.185604E-06 1 -3.576279E-07
vn -1.430511E-06 1 0.0001158714
vn 8.380413E-05 1 7.712841E-05
vn -3.516674E-06 1 7.766485E-05
vn -3.993511E-06 1.430511E-05 1
vn -3.993511E-06 1.430511E-05 1
vn -5.364418E-06 2.861023E-05 1
vn -3.993511E-06 1.430511E-05 1
vn -2.622604E-06 0 1
vn -3.993511E-06 1.430511E-05 1
vn 2.741814E-06 -1.192093E-05 -1
vn 2.741814E-06 -1.192093E-05 -1
vn 1.728535E-06 -2.223253E-05 -1
vn 2.741814E-06 -1.192093E-05 -1
vn 3.755093E-06 -1.609325E-06 -1
vn 2.741814E-06 -1.192093E-05 -1
vn 2.563E-06 -1 1.66893E-06
vn 1.788139E-07 -1 2.205372E-06
vn 2.205372E-06 -1 1.311302E-06
vn 2.563E-06 -1 1.66893E-06
vn -2.145767E-06 -1 2.980232E-07
vn 1.788139E-07 -1 2.205372E-06
vn -5.185604E-06 1 -3.576279E-07
vn -4.827976E-06 1 2.384186E-06
vn -2.861023E-06 1 4.649162E-06
vn -5.185604E-06 1 -3.576279E-07
vn -3.516674E-06 1 7.766485E-05
vn -4.827976E-06 1 2.384186E-06
vn 1 1.388788E-05 -2.920628E-06
vn 1 1.388788E-05 -2.920628E-06
vn 1 2.783537E-05 -1.609325E-06
vn 1 1.388788E-05 -2.920628E-06
vn 1 0 -4.291534E-06
vn 1 1.388788E-05 -2.920628E-06
vn -1 2.342463E-05 3.099442E-06
vn -1 2.342463E-05 3.099442E-06
vn -1 0 5.364418E-06
vn -1 2.342463E-05 3.099442E-06
vn -1 4.690886E-05 7.748604E-07
vn -1 2.342463E-05 3.099442E-06
vn 2.741814E-06 -1 -2.384186E-07
vn 2.205372E-06 -1 1.311302E-06
vn 7.152557E-07 -1 -2.44379E-06
vn 2.741814E-06 -1 -2.384186E-07
vn 2.563E-06 -1 1.66893E-06
vn 2.205372E-06 -1 1.311302E-06
vn 0.05419922 0.9985352 0.0001289845
vn 0.05419922 0.9985352 0.0001289845
vn 0.05853271 0.9980469 -4.351139E-06
vn 0.05419922 0.9985352 0.0001289845
vn 0.04986572 0.9985352 0.0002624989
vn 0.05419922 0.9985352 0.0001289845
vn -1 6.496906E-06 1.686811E-05
vn -1 6.496906E-06 1.686811E-05
vn -1 1.609325E-06 1.734495E-05
vn -1 6.496906E-06 1.686811E-05
vn -1 1.138449E-05 1.645088E-05
vn -1 6.496906E-06 1.686811E-05
vn 1 0.002620697 0.005264282
vn 1 0.002620697 0.005264282
vn 1 0.002590179 0.005264282
vn 1 0.002620697 0.005264282
vn 1 0.002649307 0.005268097
vn 1 0.002620697 0.005264282
vn 0.5771484 -0.8164063 0.001432419
vn 0.5771484 -0.8164063 0.001432419
vn 0.6069336 -0.7944336 -9.775162E-06
vn 0.5771484 -0.8164063 0.001432419
vn 0.5463867 -0.8374023 0.002872467
vn 0.5771484 -0.8164063 0.001432419
vn -7.748604E-07 0.9985352 0.05007935
vn -7.748604E-07 0.9985352 0.05007935
vn -1.549721E-06 0.9985352 0.05007935
vn -7.748604E-07 0.9985352 0.05007935
vn 0 0.9985352 0.05010986
vn -7.748604E-07 0.9985352 0.05007935
vn 7.152557E-07 3.993511E-06 -1
vn 7.152557E-07 3.993511E-06 -1
vn 5.364418E-07 1.609325E-06 -1
vn 7.152557E-07 3.993511E-06 -1
vn 9.536743E-07 6.377697E-06 -1
vn 7.152557E-07 3.993511E-06 -1
vn -2.205372E-06 0.001284599 1
vn -2.205372E-06 0.001284599 1
vn -1.788139E-07 0.00125885 1
vn -2.205372E-06 0.001284599 1
vn -4.291534E-06 0.001311302 1
vn -2.205372E-06 0.001284599 1
vn -7.152557E-07 -0.8359375 0.5493164
vn -7.152557E-07 -0.8359375 0.5493164
vn 8.34465E-07 -0.8359375 0.5493164
vn -7.152557E-07 -0.8359375 0.5493164
vn -2.324581E-06 -0.8359375 0.5493164
vn -7.152557E-07 -0.8359375 0.5493164
vn -1.251698E-06 0.9985352 -0.05004883
vn -1.251698E-06 0.9985352 -0.05004883
vn -2.503395E-06 0.9985352 -0.05007935
vn -1.251698E-06 0.9985352 -0.05004883
vn 0 0.9985352 -0.04998779
vn -1.251698E-06 0.9985352 -0.05004883
vn -3.993511E-06 1.484156E-05 1
vn -3.993511E-06 1.484156E-05 1
vn -5.245209E-06 2.813339E-05 1
vn -3.993511E-06 1.484156E-05 1
vn -2.801418E-06 1.609325E-06 1
vn -3.993511E-06 1.484156E-05 1
vn 2.145767E-06 0.001307487 -1
vn 2.145767E-06 0.001307487 -1
vn 0 0.001279831 -1
vn 2.145767E-06 0.001307487 -1
vn 4.23193E-06 0.001335144 -1
vn 2.145767E-06 0.001307487 -1
vn 6.67572E-06 -0.8359375 -0.5493164
vn 6.67572E-06 -0.8359375 -0.5493164
vn 1.549721E-06 -0.8354492 -0.5493164
vn 6.67572E-06 -0.8359375 -0.5493164
vn 1.180172E-05 -0.8359375 -0.5488281
vn 6.67572E-06 -0.8359375 -0.5493164
vn -0.04684448 0.9990234 -0.0001141429
vn -0.04684448 0.9990234 -0.0001141429
vn -0.05004883 0.9985352 1.311302E-06
vn -0.04684448 0.9990234 -0.0001141429
vn -0.04360962 0.9990234 -0.0002295971
vn -0.04684448 0.9990234 -0.0001141429
vn 1 1.388788E-05 -2.801418E-06
vn 1 1.388788E-05 -2.801418E-06
vn 1 2.783537E-05 -1.549721E-06
vn 1 1.388788E-05 -2.801418E-06
vn 1 0 -4.11272E-06
vn 1 1.388788E-05 -2.801418E-06
vn -1 2.17557E-05 -0.005264282
vn -1 2.17557E-05 -0.005264282
vn -1 -7.987022E-06 -0.005264282
vn -1 2.17557E-05 -0.005264282
vn -1 5.155802E-05 -0.005268097
vn -1 2.17557E-05 -0.005264282
vn -0.5239258 -0.8515625 -0.001309395
vn -0.5239258 -0.8515625 -0.001309395
vn -0.5498047 -0.8354492 1.311302E-06
vn -0.5239258 -0.8515625 -0.001309395
vn -0.4975586 -0.8671875 -0.00261879
vn -0.5239258 -0.8515625 -0.001309395
vn 8.46386E-06 -1 -7.927418E-06
vn 2.527237E-05 -1 1.716614E-05
vn 2.592802E-05 -1 -7.56979E-06
vn 2.527237E-05 -1 1.716614E-05
vn 1.823902E-05 -1 2.789497E-05
vn 2.592802E-05 -1 -7.56979E-06
vn -3.123283E-05 1 1.0252E-05
vn -5.960464E-08 1 9.23872E-06
vn -1.114607E-05 1 1.055002E-05
vn -5.960464E-08 1 9.23872E-06
vn 4.172325E-07 1 -1.549721E-06
vn -1.114607E-05 1 1.055002E-05
vn -5.960464E-08 1 9.23872E-06
vn 1.66893E-06 1 -3.33786E-06
vn 4.172325E-07 1 -1.549721E-06
vn 1.66893E-06 1 -3.33786E-06
vn 0 1 -3.278255E-06
vn 4.172325E-07 1 -1.549721E-06
vn -9.775162E-06 -1 -1.788139E-07
vn 8.46386E-06 -1 -7.927418E-06
vn 9.536743E-07 -1 -7.212162E-06
vn 8.46386E-06 -1 -7.927418E-06
vn 2.592802E-05 -1 -7.56979E-06
vn 9.536743E-07 -1 -7.212162E-06
vn 2.527237E-05 -1 1.716614E-05
vn -9.834766E-06 -1 2.8193E-05
vn 1.823902E-05 -1 2.789497E-05
vn -9.834766E-06 -1 2.8193E-05
vn -1.019239E-05 -1 1.078844E-05
vn 1.823902E-05 -1 2.789497E-05
vn -2.282858E-05 1 -2.640486E-05
vn -3.123283E-05 1 1.0252E-05
vn -3.188848E-05 1 -1.859665E-05
vn -3.123283E-05 1 1.0252E-05
vn -1.114607E-05 1 1.055002E-05
vn -3.188848E-05 1 -1.859665E-05
vn -0.7070313 -2.807379E-05 -0.7070313
vn -0.9165039 0.1108398 -0.3842773
vn -0.9165039 0.1108398 -0.3842773
vn -0.9165039 0.1108398 -0.3842773
vn -0.9790039 0.2039795 -1.215935E-05
vn -0.9165039 0.1108398 -0.3842773
vn -2.741814E-06 1 -2.288818E-05
vn -2.282858E-05 1 -2.640486E-05
vn -3.099442E-06 1 -4.023314E-05
vn -2.282858E-05 1 -2.640486E-05
vn -3.188848E-05 1 -1.859665E-05
vn -3.099442E-06 1 -4.023314E-05
vn 1.525879E-05 -2.70009E-05 1
vn 0.3793945 0.07904053 0.921875
vn 0.3793945 0.07904053 0.921875
vn 0.3793945 0.07904053 0.921875
vn 0.699707 0.145752 0.699707
vn 0.3793945 0.07904053 0.921875
vn -9.834766E-06 -1 2.8193E-05
vn -9.775162E-06 -1 -1.788139E-07
vn -1.019239E-05 -1 1.078844E-05
vn -9.775162E-06 -1 -1.788139E-07
vn 9.536743E-07 -1 -7.212162E-06
vn -1.019239E-05 -1 1.078844E-05

vt 0.09997559 0.9750977
vt 0.09997559 0.9750977
vt 0.09997559 0.9750977
vt 0.09997559 0.9750977
vt 0.09997559 0.9750977
vt 0.09997559 0.9750977
vt 0.09997559 0.9750977
vt 0.09997559 0.9750977
vt 0.09997559 0.9750977
vt 0.09997559 0.9750977
vt 0.09997559 0.9750977
vt 0.09997559 0.9750977
vt 0.09997559 0.9750977
vt 0.09997559 0.9750977
vt 0.09997559 0.9750977
vt 0.09997559 0.9750977
vt 0.09997559 0.9750977
vt 0.09997559 0.9750977
vt 0.09997559 0.9750977
vt 0.09997559 0.9750977
vt 0.09997559 0.9750977
vt 0.09997559 0.9750977
vt 0.09997559 0.9750977
vt 0.09997559 0.9750977
vt 0.09997559 0.9750977
vt 0.09997559 0.9750977
vt 0.09997559 0.9750977
vt 0.09997559 0.9750977
vt 0.09997559 0.9750977
vt 0.09997559 0.9750977
vt 0.09997559 0.9750977
vt 0.09997559 0.9750977
vt 0.09997559 0.9750977
vt 0.09997559 0.9750977
vt 0.09997559 0.9750977
vt 0.09997559 0.9750977
vt 0.09997559 0.9750977
vt 0.09997559 0.9750977
vt 0.09997559 0.9750977
vt 0.09997559 0.9750977
vt 0.09997559 0.9750977
vt 0.09997559 0.9750977
vt 0.09997559 0.9750977
vt 0.09997559 0.9750977
vt 0.09997559 0.9750977
vt 0.09997559 0.9750977
vt 0.09997559 0.9750977
vt 0.09997559 0.9750977
vt 0.09997559 0.9750977
vt 0.09997559 0.9750977
vt 0.09997559 0.9750977
vt 0.09997559 0.9750977
vt 0.09997559 0.9750977
vt 0.09997559 0.9750977
vt 0.09997559 0.9750977
vt 0.09997559 0.9750977
vt 0.09997559 0.9750977
vt 0.09997559 0.9750977
vt 0.09997559 0.9750977
vt 0.09997559 0.9750977
vt 0.09997559 0.9750977
vt 0.09997559 0.9750977
vt 0.09997559 0.9750977
vt 0.09997559 0.9750977
vt 0.09997559 0.9750977
vt 0.09997559 0.9750977
vt 0.09997559 0.9750977
vt 0.09997559 0.9750977
vt 0.09997559 0.9750977
vt 0.09997559 0.9750977
vt 0.09997559 0.9750977
vt 0.09997559 0.9750977
vt 0.09997559 0.9750977
vt 0.09997559 0.9750977
vt 0.09997559 0.9750977
vt 0.09997559 0.9750977
vt 0.09997559 0.9750977
vt 0.09997559 0.9750977
vt 0.09997559 0.9750977
vt 0.09997559 0.9750977
vt 0.09997559 0.9750977
vt 0.09997559 0.9750977
vt 0.09997559 0.9750977
vt 0.09997559 0.9750977
vt 0.09997559 0.9750977
vt 0.09997559 0.9750977
vt 0.09997559 0.9750977
vt 0.09997559 0.9750977
vt 0.09997559 0.9750977
vt 0.09997559 0.9750977
vt 0.09997559 0.9750977
vt 0.09997559 0.9750977
vt 0.09997559 0.9750977
vt 0.09997559 0.9750977
vt 0.09997559 0.9750977
vt 0.09997559 0.9750977
vt 0.09997559 0.9750977
vt 0.09997559 0.9750977
vt 0.09997559 0.9750977
vt 0.09997559 0.9750977
vt 0.09997559 0.9750977
vt 0.09997559 0.9750977
vt 0.09997559 0.9750977
vt 0.09997559 0.9750977
vt 0.09997559 0.9750977
vt 0.09997559 0.9750977
vt 0.09997559 0.9750977
vt 0.09997559 0.9750977
vt 0.09997559 0.9750977
vt 0.09997559 0.9750977
vt 0.09997559 0.9750977
vt 0.09997559 0.9750977
vt 0.09997559 0.9750977
vt 0.09997559 0.9750977
vt 0.09997559 0.9750977
vt 0.09997559 0.9750977
vt 0.09997559 0.9750977
vt 0.09997559 0.9750977
vt 0.09997559 0.9750977
vt 0.09997559 0.9750977
vt 0.09997559 0.9750977
vt 0.09997559 0.9750977
vt 0.09997559 0.9750977
vt 0.09997559 0.9750977
vt 0.09997559 0.9750977
vt 0.09997559 0.9750977
vt 0.09997559 0.9750977
vt 0.09997559 0.9750977
vt 0.09997559 0.9750977
vt 0.09997559 0.9750977
vt 0.09997559 0.9750977
vt 0.09997559 0.9750977
vt 0.09997559 0.9750977
vt 0.09997559 0.9750977
vt 0.09997559 0.9750977
vt 0.09997559 0.9750977
vt 0.09997559 0.9750977
vt 0.09997559 0.9750977
vt 0.09997559 0.9750977
vt 0.09997559 0.9750977
vt 0.09997559 0.9750977
vt 0.09997559 0.9750977
vt 0.09997559 0.9750977
vt 0.09997559 0.9750977
vt 0.09997559 0.9750977
vt 0.09997559 0.9750977
vt 0.09997559 0.9750977
vt 0.09997559 0.9750977
vt 0.09997559 0.9750977
vt 0.09997559 0.9750977
vt 0.09997559 0.9750977
vt 0.09997559 0.9750977
vt 0.09997559 0.9750977
vt 0.09997559 0.9750977
vt 0.09997559 0.9750977
vt 0.09997559 0.9750977
vt 0.09997559 0.9750977
vt 0.09997559 0.9750977
vt 0.09997559 0.9750977
vt 0.09997559 0.9750977
vt 0.09997559 0.9750977
vt 0.09997559 0.9750977
vt 0.09997559 0.9750977
vt 0.09997559 0.9750977
vt 0.09997559 0.9750977
vt 0.09997559 0.9750977
vt 0.09997559 0.9750977
vt 0.09997559 0.9750977
vt 0.09997559 0.9750977
vt 0.09997559 0.9750977
vt 0.09997559 0.9750977
vt 0.09997559 0.9750977
vt 0.09997559 0.9750977
vt 0.09997559 0.9750977
vt 0.09997559 0.9750977
vt 0.09997559 0.9750977
vt 0.09997559 0.9750977
vt 0.09997559 0.9750977
vt 0.09997559 0.9750977
vt 0.09997559 0.9750977
vt 0.09997559 0.9750977
vt 0.09997559 0.9750977
vt 0.09997559 0.9750977
vt 0.09997559 0.9750977
vt 0.09997559 0.9750977
vt 0.09997559 0.9750977
vt 0.09997559 0.9750977
vt 0.09997559 0.9750977
vt 0.09997559 0.9750977
vt 0.09997559 0.9750977
vt 0.09997559 0.9750977
vt 0.09997559 0.9750977
vt 0.09997559 0.9750977
vt 0.09997559 0.9750977
vt 0.09997559 0.9750977
vt 0.09997559 0.9750977
vt 0.09997559 0.9750977
vt 0.09997559 0.9750977
vt 0.09997559 0.9750977
vt 0.09997559 0.9750977
vt 0.09997559 0.9750977
vt 0.09997559 0.9750977
vt 0.09997559 0.9750977
vt 0.09997559 0.9750977
vt 0.09997559 0.9750977
vt 0.09997559 0.9750977
vt 0.09997559 0.9750977
vt 0.09997559 0.9750977
vt 0.09997559 0.9750977
vt 0.09997559 0.9750977
vt 0.09997559 0.9750977
vt 0.09997559 0.9750977
vt 0.09997559 0.9750977
vt 0.09997559 0.9750977
vt 0.09997559 0.9750977
vt 0.09997559 0.9750977
vt 0.09997559 0.9750977
vt 0.09997559 0.9750977
vt 0.09997559 0.9750977
vt 0.09997559 0.9750977
vt 0.09997559 0.9750977
vt 0.09997559 0.9750977
vt 0.09997559 0.9750977
vt 0.09997559 0.9750977
vt 0.09997559 0.9750977
vt 0.09997559 0.9750977
vt 0.09997559 0.9750977
vt 0.09997559 0.9750977
vt 0.09997559 0.9750977
vt 0.09997559 0.9750977
vt 0.09997559 0.9750977
vt 0.09997559 0.9750977
vt 0.09997559 0.9750977
vt 0.09997559 0.9750977
vt 0.09997559 0.9750977
vt 0.09997559 0.9750977
vt 0.09997559 0.9750977
vt 0.09997559 0.9750977
vt 0.09997559 0.9750977
vt 0.09997559 0.9750977
vt 0.09997559 0.9750977
vt 0.09997559 0.9750977
vt 0.09997559 0.9750977
vt 0.09997559 0.9750977
vt 0.09997559 0.9750977
vt 0.09997559 0.9750977
vt 0.09997559 0.9750977
vt 0.09997559 0.9750977
vt 0.09997559 0.9750977
vt 0.09997559 0.9750977
vt 0.09997559 0.9750977
vt 0.09997559 0.9750977

g PARKINGCombined_Meshes_2492_8
usemtl PARKINGCombined_Meshes_2492_8
usemap PARKINGCombined_Meshes_2492_8
f 1/1/1 3/3/3 2/2/2
f 4/4/4 6/6/6 5/5/5
f 7/7/7 9/9/9 8/8/8
f 10/10/10 12/12/12 11/11/11
f 13/13/13 15/15/15 14/14/14
f 16/16/16 18/18/18 17/17/17
f 19/19/19 21/21/21 20/20/20
f 22/22/22 24/24/24 23/23/23
f 25/25/25 27/27/27 26/26/26
f 28/28/28 30/30/30 29/29/29
f 31/31/31 33/33/33 32/32/32
f 34/34/34 36/36/36 35/35/35
f 37/37/37 39/39/39 38/38/38
f 40/40/40 42/42/42 41/41/41
f 43/43/43 45/45/45 44/44/44
f 46/46/46 48/48/48 47/47/47
f 49/49/49 51/51/51 50/50/50
f 52/52/52 54/54/54 53/53/53
f 55/55/55 57/57/57 56/56/56
f 58/58/58 60/60/60 59/59/59
f 61/61/61 63/63/63 62/62/62
f 64/64/64 66/66/66 65/65/65
f 67/67/67 69/69/69 68/68/68
f 70/70/70 72/72/72 71/71/71
f 73/73/73 75/75/75 74/74/74
f 76/76/76 78/78/78 77/77/77
f 79/79/79 81/81/81 80/80/80
f 82/82/82 84/84/84 83/83/83
f 85/85/85 87/87/87 86/86/86
f 88/88/88 90/90/90 89/89/89
f 91/91/91 93/93/93 92/92/92
f 94/94/94 96/96/96 95/95/95
f 97/97/97 99/99/99 98/98/98
f 100/100/100 102/102/102 101/101/101
f 103/103/103 105/105/105 104/104/104
f 106/106/106 108/108/108 107/107/107
f 109/109/109 111/111/111 110/110/110
f 112/112/112 114/114/114 113/113/113
f 115/115/115 117/117/117 116/116/116
f 118/118/118 120/120/120 119/119/119
f 121/121/121 123/123/123 122/122/122
f 124/124/124 126/126/126 125/125/125
f 127/127/127 129/129/129 128/128/128
f 130/130/130 132/132/132 131/131/131
f 133/133/133 135/135/135 134/134/134
f 136/136/136 138/138/138 137/137/137
f 139/139/139 141/141/141 140/140/140
f 142/142/142 144/144/144 143/143/143
f 145/145/145 147/147/147 146/146/146
f 148/148/148 150/150/150 149/149/149
f 151/151/151 153/153/153 152/152/152
f 154/154/154 156/156/156 155/155/155
f 157/157/157 159/159/159 158/158/158
f 160/160/160 162/162/162 161/161/161
f 163/163/163 165/165/165 164/164/164
f 166/166/166 168/168/168 167/167/167
f 169/169/169 171/171/171 170/170/170
f 172/172/172 174/174/174 173/173/173
f 175/175/175 177/177/177 176/176/176
f 178/178/178 180/180/180 179/179/179
f 181/181/181 183/183/183 182/182/182
f 184/184/184 186/186/186 185/185/185
f 187/187/187 189/189/189 188/188/188
f 190/190/190 192/192/192 191/191/191
f 193/193/193 195/195/195 194/194/194
f 196/196/196 198/198/198 197/197/197
f 199/199/199 201/201/201 200/200/200
f 202/202/202 204/204/204 203/203/203
f 205/205/205 207/207/207 206/206/206
f 208/208/208 210/210/210 209/209/209
f 211/211/211 213/213/213 212/212/212
f 214/214/214 216/216/216 215/215/215
f 217/217/217 219/219/219 218/218/218
f 220/220/220 222/222/222 221/221/221
f 223/223/223 225/225/225 224/224/224
f 226/226/226 228/228/228 227/227/227
f 229/229/229 231/231/231 230/230/230
f 232/232/232 234/234/234 233/233/233
f 235/235/235 237/237/237 236/236/236
f 238/238/238 240/240/240 239/239/239
f 241/241/241 243/243/243 242/242/242
f 244/244/244 246/246/246 245/245/245
f 247/247/247 249/249/249 248/248/248
f 250/250/250 252/252/252 251/251/251
