#PARKINGCombined_Meshes_2671_13.obj

v -27.00904 23.55003 38.39706
v -27.00904 23.05003 38.39706
v -27.00904 23.05003 38.14706
v -27.00904 24.05003 37.64706
v -27.00904 24.05003 37.89706
v -27.00905 23.05003 37.39706
v -27.00905 23.05003 37.39706
v -27.00905 23.55003 37.39706
v -27.00904 24.05003 37.64706
v -27.00905 23.55003 37.39706
v -27.00905 23.05003 37.39706
v -26.75905 23.05003 37.39706
v -26.25904 24.05003 38.39705
v -26.00904 24.05003 38.39705
v -26.50904 23.05003 38.39706
v -26.00904 23.55003 38.39705
v -26.00904 23.05003 38.39706
v -26.25904 23.05003 38.39706
v -26.25904 24.05003 38.39705
v -26.50904 23.05003 38.39706
v -26.75904 23.05003 38.39706
v -26.75905 24.05003 37.39706
v -27.00905 24.05003 37.39706
v -26.50905 23.05003 37.39706
v -26.00904 24.05003 38.14705
v -26.00904 24.05003 37.89705
v -26.00904 23.05003 38.39705
v -26.00904 23.05003 38.39705
v -26.00904 23.55003 38.39705
v -26.00904 24.05003 38.14705
v -26.25905 24.05003 37.39705
v -26.50905 24.05003 37.39706
v -26.00905 23.05003 37.39705
v -26.75905 24.05003 37.39706
v -26.50905 23.05003 37.39706
v -26.25905 23.05003 37.39705
v -26.00905 23.55003 37.39705
v -26.00905 23.05003 37.39705
v -26.00904 23.05003 37.64705
v -26.00905 23.55003 37.39705
v -26.25905 24.05003 37.39705
v -26.00905 23.05003 37.39705
v -26.75904 24.05003 38.39706
v -26.50904 24.05003 38.39706
v -27.00904 23.05003 38.39706
v -27.00904 23.05003 38.39706
v -27.00904 23.55003 38.39706
v -26.75904 24.05003 38.39706
v -27.00904 24.05003 38.14706
v -27.00904 24.05003 38.39706
v -27.00904 23.05003 37.89706
v -27.00904 24.05003 38.14706
v -27.00904 23.05003 37.89706
v -27.00904 23.05003 37.64706
v -26.00905 24.05003 37.64705
v -26.00905 24.05003 37.39705
v -26.00904 23.05003 37.89705
v -26.00905 24.05003 37.64705
v -26.00904 23.05003 37.89705
v -26.00904 23.05003 38.14705
v -27.00905 24.05003 37.39706
v -26.75905 23.05003 37.39706
v -26.50905 23.05003 37.39706
v -27.00905 24.05003 37.39706
v -27.00905 23.55003 37.39706
v -26.75905 23.05003 37.39706
v -27.00904 24.05003 37.64706
v -27.00905 23.55003 37.39706
v -27.00905 24.05003 37.39706
v -27.00904 24.05003 38.39706
v -27.00904 23.05003 38.14706
v -27.00904 23.05003 37.89706
v -27.00904 24.05003 38.39706
v -27.00904 23.55003 38.39706
v -27.00904 23.05003 38.14706
v -26.75904 24.05003 38.39706
v -27.00904 23.55003 38.39706
v -27.00904 24.05003 38.39706
v -26.50904 24.05003 38.39706
v -26.75904 23.05003 38.39706
v -27.00904 23.05003 38.39706
v -26.00904 24.05003 38.39705
v -26.25904 23.05003 38.39706
v -26.50904 23.05003 38.39706
v -26.00904 23.55003 38.39705
v -26.25904 23.05003 38.39706
v -26.00904 24.05003 38.39705
v -26.25904 24.05003 38.39705
v -26.75904 23.05003 38.39706
v -26.50904 24.05003 38.39706
v -26.00904 24.05003 38.14705
v -26.00904 23.55003 38.39705
v -26.00904 24.05003 38.39705
v -26.00905 24.05003 37.39705
v -26.00904 23.05003 37.64705
v -26.00904 23.05003 37.89705
v -26.50905 24.05003 37.39706
v -26.25905 23.05003 37.39705
v -26.00905 23.05003 37.39705
v -26.75905 24.05003 37.39706
v -26.25905 23.05003 37.39705
v -26.50905 24.05003 37.39706
v -26.25905 24.05003 37.39705
v -26.00905 23.55003 37.39705
v -26.00905 24.05003 37.39705
v -26.00905 23.55003 37.39705
v -26.00904 23.05003 37.64705
v -26.00905 24.05003 37.39705
v -27.00904 24.05003 37.89706
v -27.00904 23.05003 37.64706
v -27.00905 23.05003 37.39706
v -27.00904 24.05003 37.89706
v -27.00904 24.05003 38.14706
v -27.00904 23.05003 37.64706
v -26.00904 24.05003 37.89705
v -26.00904 23.05003 38.14705
v -26.00904 23.05003 38.39705
v -26.00904 24.05003 37.89705
v -26.00905 24.05003 37.64705
v -26.00904 23.05003 38.14705
v -27.00905 24.05003 37.39706
v -26.00905 24.05003 37.39705
v -27.00905 30.55003 37.39706
v -26.00905 24.05003 37.39705
v -26.00904 30.55003 37.39705
v -27.00905 30.55003 37.39706
v -26.00905 24.05003 37.39705
v -26.00904 24.05003 38.39705
v -26.00904 30.55003 37.39705
v -26.00904 24.05003 38.39705
v -26.00904 30.55003 38.39705
v -26.00904 30.55003 37.39705
v -26.00904 24.05003 38.39705
v -27.00904 24.05003 38.39706
v -26.00904 30.55003 38.39705
v -27.00904 24.05003 38.39706
v -27.00904 30.55003 38.39706
v -26.00904 30.55003 38.39705
v -27.00904 24.05003 38.39706
v -27.00905 24.05003 37.39706
v -27.00904 30.55003 38.39706
v -27.00905 24.05003 37.39706
v -27.00905 30.55003 37.39706
v -27.00904 30.55003 38.39706
v -27.00905 30.55003 37.39706
v -26.00904 30.55003 37.39705
v -27.00904 30.55003 38.39706
v -26.00904 30.55003 37.39705
v -26.00904 30.55003 38.39705
v -27.00904 30.55003 38.39706
v -27.00904 24.05003 38.39706
v -26.00904 24.05003 38.39705
v -27.00905 24.05003 37.39706
v -26.00904 24.05003 38.39705
v -26.00905 24.05003 37.39705
v -27.00905 24.05003 37.39706
v -26.55906 26.094 49.76971
v -26.55913 26.094 26.01971
v -26.55906 26.194 49.76971
v -26.55913 26.094 26.01971
v -26.55913 26.194 26.01971
v -26.55906 26.194 49.76971
v -26.55913 26.094 26.01971
v -26.45913 26.094 26.01971
v -26.55913 26.194 26.01971
v -26.45913 26.094 26.01971
v -26.45913 26.194 26.01971
v -26.55913 26.194 26.01971
v -26.45913 26.094 26.01971
v -26.45906 26.094 49.76971
v -26.45913 26.194 26.01971
v -26.45906 26.094 49.76971
v -26.45906 26.194 49.76971
v -26.45913 26.194 26.01971
v -26.50906 26.194 49.76971
v -26.45906 26.194 49.76971
v -26.45906 26.094 49.76971
v -26.55906 26.094 49.76971
v -26.50906 26.194 49.76971
v -26.45906 26.094 49.76971
v -26.50906 26.194 49.76971
v -26.55906 26.094 49.76971
v -26.55906 26.194 49.76971
v -26.45913 26.194 26.01971
v -26.45906 26.194 49.76971
v -26.50906 26.194 49.76971
v -26.45913 26.194 26.01971
v -26.50906 26.194 49.76971
v -26.55913 26.194 26.01971
v -26.50906 26.194 49.76971
v -26.55906 26.194 49.76971
v -26.55913 26.194 26.01971
v -26.45906 26.094 49.76971
v -26.45913 26.094 26.01971
v -26.55906 26.094 49.76971
v -26.45913 26.094 26.01971
v -26.55913 26.094 26.01971
v -26.55906 26.094 49.76971
v -26.55906 27.20007 49.76971
v -26.55913 27.20007 26.01971
v -26.55906 27.30007 49.76971
v -26.55913 27.20007 26.01971
v -26.55913 27.30007 26.01971
v -26.55906 27.30007 49.76971
v -26.55913 27.20007 26.01971
v -26.45913 27.20007 26.01971
v -26.55913 27.30007 26.01971
v -26.45913 27.20007 26.01971
v -26.45913 27.30007 26.01971
v -26.55913 27.30007 26.01971
v -26.45913 27.20007 26.01971
v -26.45906 27.20007 49.76971
v -26.45913 27.30007 26.01971
v -26.45906 27.20007 49.76971
v -26.45906 27.30007 49.76971
v -26.45913 27.30007 26.01971
v -26.50906 27.30007 49.76971
v -26.45906 27.30007 49.76971
v -26.45906 27.20007 49.76971
v -26.55906 27.20007 49.76971
v -26.50906 27.30007 49.76971
v -26.45906 27.20007 49.76971
v -26.50906 27.30007 49.76971
v -26.55906 27.20007 49.76971
v -26.55906 27.30007 49.76971
v -26.45913 27.30007 26.01971
v -26.45906 27.30007 49.76971
v -26.50906 27.30007 49.76971
v -26.45913 27.30007 26.01971
v -26.50906 27.30007 49.76971
v -26.55913 27.30007 26.01971
v -26.50906 27.30007 49.76971
v -26.55906 27.30007 49.76971
v -26.55913 27.30007 26.01971
v -26.45906 27.20007 49.76971
v -26.45913 27.20007 26.01971
v -26.55906 27.20007 49.76971
v -26.45913 27.20007 26.01971
v -26.55913 27.20007 26.01971
v -26.55906 27.20007 49.76971

vn -1 1.907349E-06 1.144409E-05
vn -1 3.814697E-06 7.629395E-06
vn -1 2.563E-06 7.629395E-06
vn -1 -6.556511E-07 2.032518E-05
vn -1 2.563E-06 5.066395E-06
vn -1 0 1.525879E-05
vn -1 0 1.525879E-05
vn -1 -1.907349E-06 2.670288E-05
vn -1 -6.556511E-07 2.032518E-05
vn -7.629395E-06 3.814697E-06 -1
vn 0 7.629395E-06 -1
vn -5.066395E-06 3.814697E-06 -1
vn 1.019239E-05 1.251698E-06 1
vn 5.066395E-06 2.563E-06 1
vn 5.066395E-06 2.563E-06 1
vn 7.629395E-06 3.814697E-06 1
vn 0 7.629395E-06 1
vn 5.066395E-06 3.814697E-06 1
vn 1.019239E-05 1.251698E-06 1
vn 5.066395E-06 2.563E-06 1
vn 5.066395E-06 2.563E-06 1
vn -1.019239E-05 -1.251698E-06 -1
vn -1.019239E-05 0 -1
vn -1.019239E-05 -1.251698E-06 -1
vn 1 0 -7.629395E-06
vn 1 3.159046E-06 -2.563E-06
vn 1 3.814697E-06 0
vn 1 3.814697E-06 0
vn 1 -1.907349E-06 -1.144409E-05
vn 1 0 -7.629395E-06
vn -2.032518E-05 -3.814697E-06 -1
vn -5.066395E-06 1.251698E-06 -1
vn -1.525879E-05 -2.563E-06 -1
vn -1.019239E-05 -1.251698E-06 -1
vn -1.019239E-05 -1.251698E-06 -1
vn -5.066395E-06 1.251698E-06 -1
vn 1 1.907349E-06 -1.144409E-05
vn 1 3.814697E-06 -7.629395E-06
vn 1 1.907349E-06 -1.019239E-05
vn -2.288818E-05 -3.814697E-06 -1
vn -2.032518E-05 -3.814697E-06 -1
vn -1.525879E-05 -2.563E-06 -1
vn 1.525879E-05 -2.563E-06 1
vn 0 2.563E-06 1
vn 5.066395E-06 0 1
vn 5.066395E-06 0 1
vn 2.288818E-05 -3.814697E-06 1
vn 1.525879E-05 -2.563E-06 1
vn -1 1.251698E-06 5.066395E-06
vn -1 1.251698E-06 7.629395E-06
vn -1 1.251698E-06 5.066395E-06
vn -1 1.251698E-06 5.066395E-06
vn -1 1.251698E-06 5.066395E-06
vn -1 1.907349E-06 5.066395E-06
vn 1 1.907349E-06 -7.629395E-06
vn 1 1.251698E-06 -1.019239E-05
vn 1 1.907349E-06 -7.629395E-06
vn 1 1.907349E-06 -7.629395E-06
vn 1 1.907349E-06 -7.629395E-06
vn 1 2.563E-06 -5.066395E-06
vn -1.019239E-05 0 -1
vn -5.066395E-06 3.814697E-06 -1
vn -1.019239E-05 -1.251698E-06 -1
vn -1.019239E-05 0 -1
vn -7.629395E-06 3.814697E-06 -1
vn -5.066395E-06 3.814697E-06 -1
vn -1 -6.556511E-07 2.032518E-05
vn -1 -1.907349E-06 2.670288E-05
vn -1 0 2.288818E-05
vn -1 1.251698E-06 7.629395E-06
vn -1 2.563E-06 7.629395E-06
vn -1 1.251698E-06 5.066395E-06
vn -1 1.251698E-06 7.629395E-06
vn -1 1.907349E-06 1.144409E-05
vn -1 2.563E-06 7.629395E-06
vn 1.525879E-05 -2.563E-06 1
vn 2.288818E-05 -3.814697E-06 1
vn 1.525879E-05 0 1
vn 0 2.563E-06 1
vn 5.066395E-06 2.563E-06 1
vn 5.066395E-06 0 1
vn 5.066395E-06 2.563E-06 1
vn 5.066395E-06 3.814697E-06 1
vn 5.066395E-06 2.563E-06 1
vn 7.629395E-06 3.814697E-06 1
vn 5.066395E-06 3.814697E-06 1
vn 5.066395E-06 2.563E-06 1
vn 1.019239E-05 1.251698E-06 1
vn 5.066395E-06 2.563E-06 1
vn 0 2.563E-06 1
vn 1 0 -7.629395E-06
vn 1 -1.907349E-06 -1.144409E-05
vn 1 -7.629395E-06 -2.288818E-05
vn 1 1.251698E-06 -1.019239E-05
vn 1 1.907349E-06 -1.019239E-05
vn 1 1.907349E-06 -7.629395E-06
vn -5.066395E-06 1.251698E-06 -1
vn -5.066395E-06 1.251698E-06 -1
vn -1.525879E-05 -2.563E-06 -1
vn -1.019239E-05 -1.251698E-06 -1
vn -5.066395E-06 1.251698E-06 -1
vn -5.066395E-06 1.251698E-06 -1
vn -2.032518E-05 -3.814697E-06 -1
vn -2.288818E-05 -3.814697E-06 -1
vn -1.525879E-05 0 -1
vn 1 1.907349E-06 -1.144409E-05
vn 1 1.907349E-06 -1.019239E-05
vn 1 1.251698E-06 -1.019239E-05
vn -1 2.563E-06 5.066395E-06
vn -1 1.907349E-06 5.066395E-06
vn -1 0 1.525879E-05
vn -1 2.563E-06 5.066395E-06
vn -1 1.251698E-06 5.066395E-06
vn -1 1.907349E-06 5.066395E-06
vn 1 3.159046E-06 -2.563E-06
vn 1 2.563E-06 -5.066395E-06
vn 1 3.814697E-06 0
vn 1 3.159046E-06 -2.563E-06
vn 1 1.907349E-06 -7.629395E-06
vn 1 2.563E-06 -5.066395E-06
vn -7.629395E-06 -5.960464E-07 -1
vn -7.629395E-06 -5.960464E-07 -1
vn -7.629395E-06 -5.960464E-07 -1
vn -7.629395E-06 -5.960464E-07 -1
vn -7.629395E-06 -5.960464E-07 -1
vn -7.629395E-06 -5.960464E-07 -1
vn 1 -2.980232E-07 -5.722046E-06
vn 1 -1.192093E-07 -4.768372E-06
vn 1 -1.192093E-07 -4.768372E-06
vn 1 -1.192093E-07 -4.768372E-06
vn 1 0 -3.814697E-06
vn 1 -1.192093E-07 -4.768372E-06
vn 7.629395E-06 5.960464E-07 1
vn 7.629395E-06 5.960464E-07 1
vn 7.629395E-06 5.960464E-07 1
vn 7.629395E-06 5.960464E-07 1
vn 7.629395E-06 5.960464E-07 1
vn 7.629395E-06 5.960464E-07 1
vn -1 0 5.722046E-06
vn -1 0 5.722046E-06
vn -1 0 5.722046E-06
vn -1 0 5.722046E-06
vn -1 0 5.722046E-06
vn -1 0 5.722046E-06
vn 0 1 0
vn 0 1 0
vn 0 1 0
vn 0 1 0
vn 0 1 0
vn 0 1 0
vn 0 -1 0
vn 0 -1 0
vn 0 -1 0
vn 0 -1 0
vn 0 -1 0
vn 0 -1 0
vn -1 0 2.801418E-06
vn -1 0 2.801418E-06
vn -1 0 2.801418E-06
vn -1 0 2.801418E-06
vn -1 0 2.801418E-06
vn -1 0 2.801418E-06
vn 0 0 -1
vn 0 0 -1
vn 0 0 -1
vn 0 0 -1
vn 0 0 -1
vn 0 0 -1
vn 1 0 -2.801418E-06
vn 1 0 -2.801418E-06
vn 1 0 -2.801418E-06
vn 1 0 -2.801418E-06
vn 1 0 -2.801418E-06
vn 1 0 -2.801418E-06
vn 0 0 1
vn 0 0 1
vn 0 0 1
vn 0 0 1
vn 0 0 1
vn 0 0 1
vn 0 0 1
vn 0 0 1
vn 0 0 1
vn 0 1 -5.960464E-08
vn 0 1 -5.960464E-08
vn 0 1 -5.960464E-08
vn 0 1 -5.960464E-08
vn 0 1 -5.960464E-08
vn 0 1 -5.960464E-08
vn 0 1 -5.960464E-08
vn 0 1 -5.960464E-08
vn 0 1 -5.960464E-08
vn 0 -1 5.960464E-08
vn 0 -1 5.960464E-08
vn 0 -1 5.960464E-08
vn 0 -1 5.960464E-08
vn 0 -1 5.960464E-08
vn 0 -1 5.960464E-08
vn -1 0 2.801418E-06
vn -1 0 2.801418E-06
vn -1 0 2.801418E-06
vn -1 0 2.801418E-06
vn -1 0 2.801418E-06
vn -1 0 2.801418E-06
vn 0 0 -1
vn 0 0 -1
vn 0 0 -1
vn 0 0 -1
vn 0 0 -1
vn 0 0 -1
vn 1 0 -2.801418E-06
vn 1 0 -2.801418E-06
vn 1 0 -2.801418E-06
vn 1 0 -2.801418E-06
vn 1 0 -2.801418E-06
vn 1 0 -2.801418E-06
vn 0 0 1
vn 0 0 1
vn 0 0 1
vn 0 0 1
vn 0 0 1
vn 0 0 1
vn 0 0 1
vn 0 0 1
vn 0 0 1
vn 0 1 -5.960464E-08
vn 0 1 -5.960464E-08
vn 0 1 -5.960464E-08
vn 0 1 -5.960464E-08
vn 0 1 -5.960464E-08
vn 0 1 -5.960464E-08
vn 0 1 -5.960464E-08
vn 0 1 -5.960464E-08
vn 0 1 -5.960464E-08
vn 0 -1 5.960464E-08
vn 0 -1 5.960464E-08
vn 0 -1 5.960464E-08
vn 0 -1 5.960464E-08
vn 0 -1 5.960464E-08
vn 0 -1 5.960464E-08

vt 0.3500977 0.2249756
vt 0.3500977 0.2249756
vt 0.3500977 0.2249756
vt 0.3500977 0.2249756
vt 0.3500977 0.2249756
vt 0.3500977 0.2249756
vt 0.3500977 0.2249756
vt 0.3500977 0.2249756
vt 0.3500977 0.2249756
vt 0.3500977 0.2249756
vt 0.3500977 0.2249756
vt 0.3500977 0.2249756
vt 0.3500977 0.2249756
vt 0.3500977 0.2249756
vt 0.3500977 0.2249756
vt 0.3500977 0.2249756
vt 0.3500977 0.2249756
vt 0.3500977 0.2249756
vt 0.3500977 0.2249756
vt 0.3500977 0.2249756
vt 0.3500977 0.2249756
vt 0.3500977 0.2249756
vt 0.3500977 0.2249756
vt 0.3500977 0.2249756
vt 0.3500977 0.2249756
vt 0.3500977 0.2249756
vt 0.3500977 0.2249756
vt 0.3500977 0.2249756
vt 0.3500977 0.2249756
vt 0.3500977 0.2249756
vt 0.3500977 0.2249756
vt 0.3500977 0.2249756
vt 0.3500977 0.2249756
vt 0.3500977 0.2249756
vt 0.3500977 0.2249756
vt 0.3500977 0.2249756
vt 0.3500977 0.2249756
vt 0.3500977 0.2249756
vt 0.3500977 0.2249756
vt 0.3500977 0.2249756
vt 0.3500977 0.2249756
vt 0.3500977 0.2249756
vt 0.3500977 0.2249756
vt 0.3500977 0.2249756
vt 0.3500977 0.2249756
vt 0.3500977 0.2249756
vt 0.3500977 0.2249756
vt 0.3500977 0.2249756
vt 0.3500977 0.2249756
vt 0.3500977 0.2249756
vt 0.3500977 0.2249756
vt 0.3500977 0.2249756
vt 0.3500977 0.2249756
vt 0.3500977 0.2249756
vt 0.3500977 0.2249756
vt 0.3500977 0.2249756
vt 0.3500977 0.2249756
vt 0.3500977 0.2249756
vt 0.3500977 0.2249756
vt 0.3500977 0.2249756
vt 0.7250977 0.09997559
vt 0.7250977 0.09997559
vt 0.7250977 0.09997559
vt 0.7250977 0.09997559
vt 0.7250977 0.09997559
vt 0.7250977 0.09997559
vt 0.7250977 0.09997559
vt 0.7250977 0.09997559
vt 0.7250977 0.09997559
vt 0.7250977 0.09997559
vt 0.7250977 0.09997559
vt 0.7250977 0.09997559
vt 0.7250977 0.09997559
vt 0.7250977 0.09997559
vt 0.7250977 0.09997559
vt 0.7250977 0.09997559
vt 0.7250977 0.09997559
vt 0.7250977 0.09997559
vt 0.7250977 0.09997559
vt 0.7250977 0.09997559
vt 0.7250977 0.09997559
vt 0.7250977 0.09997559
vt 0.7250977 0.09997559
vt 0.7250977 0.09997559
vt 0.7250977 0.09997559
vt 0.7250977 0.09997559
vt 0.7250977 0.09997559
vt 0.7250977 0.09997559
vt 0.7250977 0.09997559
vt 0.7250977 0.09997559
vt 0.7250977 0.09997559
vt 0.7250977 0.09997559
vt 0.7250977 0.09997559
vt 0.7250977 0.09997559
vt 0.7250977 0.09997559
vt 0.7250977 0.09997559
vt 0.7250977 0.09997559
vt 0.7250977 0.09997559
vt 0.7250977 0.09997559
vt 0.7250977 0.09997559
vt 0.7250977 0.09997559
vt 0.7250977 0.09997559
vt 0.7250977 0.09997559
vt 0.7250977 0.09997559
vt 0.7250977 0.09997559
vt 0.7250977 0.09997559
vt 0.7250977 0.09997559
vt 0.7250977 0.09997559
vt 0.7250977 0.09997559
vt 0.7250977 0.09997559
vt 0.7250977 0.09997559
vt 0.7250977 0.09997559
vt 0.7250977 0.09997559
vt 0.7250977 0.09997559
vt 0.7250977 0.09997559
vt 0.7250977 0.09997559
vt 0.7250977 0.09997559
vt 0.7250977 0.09997559
vt 0.7250977 0.09997559
vt 0.7250977 0.09997559
vt 0.4750977 0.2249756
vt 0.4750977 0.2249756
vt 0.4750977 0.2249756
vt 0.4750977 0.2249756
vt 0.4750977 0.2249756
vt 0.4750977 0.2249756
vt 0.4750977 0.2249756
vt 0.4750977 0.2249756
vt 0.4750977 0.2249756
vt 0.4750977 0.2249756
vt 0.4750977 0.2249756
vt 0.4750977 0.2249756
vt 0.4750977 0.2249756
vt 0.4750977 0.2249756
vt 0.4750977 0.2249756
vt 0.4750977 0.2249756
vt 0.4750977 0.2249756
vt 0.4750977 0.2249756
vt 0.4750977 0.2249756
vt 0.4750977 0.2249756
vt 0.4750977 0.2249756
vt 0.4750977 0.2249756
vt 0.4750977 0.2249756
vt 0.4750977 0.2249756
vt 0.4750977 0.2249756
vt 0.4750977 0.2249756
vt 0.4750977 0.2249756
vt 0.4750977 0.2249756
vt 0.4750977 0.2249756
vt 0.4750977 0.2249756
vt 0.4750977 0.2249756
vt 0.4750977 0.2249756
vt 0.4750977 0.2249756
vt 0.4750977 0.2249756
vt 0.4750977 0.2249756
vt 0.4750977 0.2249756
vt 0.2249756 0.3500977
vt 0.2249756 0.3500977
vt 0.2249756 0.3500977
vt 0.2249756 0.3500977
vt 0.2249756 0.3500977
vt 0.2249756 0.3500977
vt 0.2249756 0.3500977
vt 0.2249756 0.3500977
vt 0.2249756 0.3500977
vt 0.2249756 0.3500977
vt 0.2249756 0.3500977
vt 0.2249756 0.3500977
vt 0.2249756 0.3500977
vt 0.2249756 0.3500977
vt 0.2249756 0.3500977
vt 0.2249756 0.3500977
vt 0.2249756 0.3500977
vt 0.2249756 0.3500977
vt 0.2249756 0.3500977
vt 0.2249756 0.3500977
vt 0.2249756 0.3500977
vt 0.2249756 0.3500977
vt 0.2249756 0.3500977
vt 0.2249756 0.3500977
vt 0.2249756 0.3500977
vt 0.2249756 0.3500977
vt 0.2249756 0.3500977
vt 0.2249756 0.3500977
vt 0.2249756 0.3500977
vt 0.2249756 0.3500977
vt 0.2249756 0.3500977
vt 0.2249756 0.3500977
vt 0.2249756 0.3500977
vt 0.2249756 0.3500977
vt 0.2249756 0.3500977
vt 0.2249756 0.3500977
vt 0.2249756 0.3500977
vt 0.2249756 0.3500977
vt 0.2249756 0.3500977
vt 0.2249756 0.3500977
vt 0.2249756 0.3500977
vt 0.2249756 0.3500977
vt 0.2249756 0.3500977
vt 0.2249756 0.3500977
vt 0.2249756 0.3500977
vt 0.2249756 0.3500977
vt 0.2249756 0.3500977
vt 0.2249756 0.3500977
vt 0.2249756 0.3500977
vt 0.2249756 0.3500977
vt 0.2249756 0.3500977
vt 0.2249756 0.3500977
vt 0.2249756 0.3500977
vt 0.2249756 0.3500977
vt 0.2249756 0.3500977
vt 0.2249756 0.3500977
vt 0.2249756 0.3500977
vt 0.2249756 0.3500977
vt 0.2249756 0.3500977
vt 0.2249756 0.3500977
vt 0.2249756 0.3500977
vt 0.2249756 0.3500977
vt 0.2249756 0.3500977
vt 0.2249756 0.3500977
vt 0.2249756 0.3500977
vt 0.2249756 0.3500977
vt 0.2249756 0.3500977
vt 0.2249756 0.3500977
vt 0.2249756 0.3500977
vt 0.2249756 0.3500977
vt 0.2249756 0.3500977
vt 0.2249756 0.3500977
vt 0.2249756 0.3500977
vt 0.2249756 0.3500977
vt 0.2249756 0.3500977
vt 0.2249756 0.3500977
vt 0.2249756 0.3500977
vt 0.2249756 0.3500977
vt 0.2249756 0.3500977
vt 0.2249756 0.3500977
vt 0.2249756 0.3500977
vt 0.2249756 0.3500977
vt 0.2249756 0.3500977
vt 0.2249756 0.3500977

g PARKINGCombined_Meshes_2671_13
usemtl PARKINGCombined_Meshes_2671_13
usemap PARKINGCombined_Meshes_2671_13
f 1/1/1 3/3/3 2/2/2
f 4/4/4 6/6/6 5/5/5
f 7/7/7 9/9/9 8/8/8
f 10/10/10 12/12/12 11/11/11
f 13/13/13 15/15/15 14/14/14
f 16/16/16 18/18/18 17/17/17
f 19/19/19 21/21/21 20/20/20
f 22/22/22 24/24/24 23/23/23
f 25/25/25 27/27/27 26/26/26
f 28/28/28 30/30/30 29/29/29
f 31/31/31 33/33/33 32/32/32
f 34/34/34 36/36/36 35/35/35
f 37/37/37 39/39/39 38/38/38
f 40/40/40 42/42/42 41/41/41
f 43/43/43 45/45/45 44/44/44
f 46/46/46 48/48/48 47/47/47
f 49/49/49 51/51/51 50/50/50
f 52/52/52 54/54/54 53/53/53
f 55/55/55 57/57/57 56/56/56
f 58/58/58 60/60/60 59/59/59
f 61/61/61 63/63/63 62/62/62
f 64/64/64 66/66/66 65/65/65
f 67/67/67 69/69/69 68/68/68
f 70/70/70 72/72/72 71/71/71
f 73/73/73 75/75/75 74/74/74
f 76/76/76 78/78/78 77/77/77
f 79/79/79 81/81/81 80/80/80
f 82/82/82 84/84/84 83/83/83
f 85/85/85 87/87/87 86/86/86
f 88/88/88 90/90/90 89/89/89
f 91/91/91 93/93/93 92/92/92
f 94/94/94 96/96/96 95/95/95
f 97/97/97 99/99/99 98/98/98
f 100/100/100 102/102/102 101/101/101
f 103/103/103 105/105/105 104/104/104
f 106/106/106 108/108/108 107/107/107
f 109/109/109 111/111/111 110/110/110
f 112/112/112 114/114/114 113/113/113
f 115/115/115 117/117/117 116/116/116
f 118/118/118 120/120/120 119/119/119
f 121/121/121 123/123/123 122/122/122
f 124/124/124 126/126/126 125/125/125
f 127/127/127 129/129/129 128/128/128
f 130/130/130 132/132/132 131/131/131
f 133/133/133 135/135/135 134/134/134
f 136/136/136 138/138/138 137/137/137
f 139/139/139 141/141/141 140/140/140
f 142/142/142 144/144/144 143/143/143
f 145/145/145 147/147/147 146/146/146
f 148/148/148 150/150/150 149/149/149
f 151/151/151 153/153/153 152/152/152
f 154/154/154 156/156/156 155/155/155
f 157/157/157 159/159/159 158/158/158
f 160/160/160 162/162/162 161/161/161
f 163/163/163 165/165/165 164/164/164
f 166/166/166 168/168/168 167/167/167
f 169/169/169 171/171/171 170/170/170
f 172/172/172 174/174/174 173/173/173
f 175/175/175 177/177/177 176/176/176
f 178/178/178 180/180/180 179/179/179
f 181/181/181 183/183/183 182/182/182
f 184/184/184 186/186/186 185/185/185
f 187/187/187 189/189/189 188/188/188
f 190/190/190 192/192/192 191/191/191
f 193/193/193 195/195/195 194/194/194
f 196/196/196 198/198/198 197/197/197
f 199/199/199 201/201/201 200/200/200
f 202/202/202 204/204/204 203/203/203
f 205/205/205 207/207/207 206/206/206
f 208/208/208 210/210/210 209/209/209
f 211/211/211 213/213/213 212/212/212
f 214/214/214 216/216/216 215/215/215
f 217/217/217 219/219/219 218/218/218
f 220/220/220 222/222/222 221/221/221
f 223/223/223 225/225/225 224/224/224
f 226/226/226 228/228/228 227/227/227
f 229/229/229 231/231/231 230/230/230
f 232/232/232 234/234/234 233/233/233
f 235/235/235 237/237/237 236/236/236
f 238/238/238 240/240/240 239/239/239
