#PARKINGCombined_Meshes_2411_0.obj

v -22.85625 30.5 69.64691
v -22.8558 37 69.64692
v -70.50891 37 69.647
v -22.85625 30.5 69.64691
v -70.50891 37 69.647
v -70.50632 30.5 69.64621
v -54.50946 30.5001 6.146927
v -54.50944 37.00008 6.146935
v -7.00901 37.00002 6.147087
v -54.50946 30.5001 6.146927
v -7.00901 37.00002 6.147087
v -7.011604 30.50002 6.147873
v -7.011604 30.50002 6.147873
v -7.008999 37.00001 26.397
v -7.009056 30.50001 26.397
v -7.011604 30.50002 6.147873
v -7.00901 37.00002 6.147087
v -7.008999 37.00001 26.397
v -7.260189 37.00001 69.64367
v -7.008991 30.5 69.64366
v -7.00898 37.00001 69.64367
v -7.260189 37.00001 69.64367
v -7.260201 30.50001 69.64367
v -7.008991 30.5 69.64366
v -70.5092 30.50027 6.146965
v -70.50896 30.50002 7.297455
v -70.50896 37.00002 7.297012
v -70.5092 30.50027 6.146965
v -70.50896 37.00002 7.297012
v -70.50921 37.00027 6.146965
v -70.50891 37 62.0834
v -70.50632 30.5 69.64621
v -70.50891 37 69.647
v -70.50891 37 62.0834
v -70.50985 30.49951 62.08313
v -70.50632 30.5 69.64621
v -7.008965 37.00002 59.47919
v -7.009056 30.50001 26.397
v -7.008999 37.00001 26.397
v -7.008965 37.00002 59.47919
v -7.008995 30.50007 62.0203
v -7.009056 30.50001 26.397
v -7.008995 30.50007 62.0203
v -7.00898 37.00001 69.64367
v -7.008991 30.5 69.64366
v -7.008995 30.50007 62.0203
v -7.008965 37.00002 59.47919
v -7.00898 37.00001 69.64367
v -70.50877 36.99985 22.897
v -70.50985 30.49951 62.08313
v -70.50891 37 62.0834
v -70.50877 36.99985 22.897
v -70.50882 30.49992 22.89604
v -70.50985 30.49951 62.08313
v -70.5092 30.50027 6.146965
v -54.50944 37.00008 6.146935
v -54.50946 30.5001 6.146927
v -70.5092 30.50027 6.146965
v -70.50921 37.00027 6.146965
v -54.50944 37.00008 6.146935
v -70.50921 37.00027 6.146965
v -70.50896 37.00002 7.297012
v -54.50944 37.00008 6.146935
v -7.00898 37.00001 69.64367
v -26.25095 37.00003 50.39706
v -7.260189 37.00001 69.64367
v -7.260189 37.00001 69.64367
v -26.25095 37.00003 50.39706
v -22.8558 37 69.64692
v -51.509 37 50.52199
v -51.2594 36.99998 25.27199
v -70.50877 36.99985 22.897
v -70.50877 36.99985 22.897
v -54.50944 37.00008 6.146935
v -70.50896 37.00002 7.297012
v -70.50877 36.99985 22.897
v -51.2594 36.99998 25.27199
v -54.50944 37.00008 6.146935
v -54.50944 37.00008 6.146935
v -51.2594 36.99998 25.27199
v -26.25096 37.00001 25.3944
v -21.81312 37.00001 10.39624
v -54.50944 37.00008 6.146935
v -26.25096 37.00001 25.3944
v -7.00901 37.00002 6.147087
v -54.50944 37.00008 6.146935
v -21.81312 37.00001 10.39624
v -7.008999 37.00001 26.397
v -7.00901 37.00002 6.147087
v -21.81312 37.00001 10.39624
v -7.008999 37.00001 26.397
v -21.81312 37.00001 10.39624
v -26.25096 37.00001 25.3944
v -7.008999 37.00001 26.397
v -26.25096 37.00001 25.3944
v -26.25095 37.00003 50.39706
v -7.008965 37.00002 59.47919
v -7.008999 37.00001 26.397
v -26.25095 37.00003 50.39706
v -7.00898 37.00001 69.64367
v -7.008965 37.00002 59.47919
v -26.25095 37.00003 50.39706
v -22.8558 37 69.64692
v -26.25095 37.00003 50.39706
v -51.509 37 50.52199
v -22.8558 37 69.64692
v -51.509 37 50.52199
v -70.50891 37 69.647
v -70.50891 37 69.647
v -51.509 37 50.52199
v -70.50891 37 62.0834
v -51.509 37 50.52199
v -70.50877 36.99985 22.897
v -70.50891 37 62.0834
v -54.50945 30.50009 6.146973
v -70.50896 30.50002 7.29705
v -70.50922 30.50027 6.147003
v -22.8558 30.5 69.64696
v -26.47581 30.50003 50.3336
v -7.260193 30.50001 69.64371
v -70.50892 30.50001 62.08344
v -70.50877 30.49985 22.89704
v -51.259 30.5 50.27203
v -70.50896 30.50002 7.29705
v -54.50945 30.50009 6.146973
v -70.50877 30.49985 22.89704
v -54.50945 30.50009 6.146973
v -51.18449 30.49998 25.52203
v -70.50877 30.49985 22.89704
v -70.50877 30.49985 22.89704
v -51.18449 30.49998 25.52203
v -51.259 30.5 50.27203
v -26.38714 30.50001 25.50231
v -51.18449 30.49998 25.52203
v -54.50945 30.50009 6.146973
v -26.38714 30.50001 25.50231
v -54.50945 30.50009 6.146973
v -21.81313 30.50001 10.39628
v -21.81313 30.50001 10.39628
v -54.50945 30.50009 6.146973
v -7.009014 30.50002 6.147125
v -21.81313 30.50001 10.39628
v -7.009014 30.50002 6.147125
v -7.009003 30.50001 26.39703
v -26.38714 30.50001 25.50231
v -21.81313 30.50001 10.39628
v -7.009003 30.50001 26.39703
v -26.47581 30.50003 50.3336
v -26.38714 30.50001 25.50231
v -7.009003 30.50001 26.39703
v -26.47581 30.50003 50.3336
v -7.009003 30.50001 26.39703
v -7.008968 30.50002 59.47923
v -26.47581 30.50003 50.3336
v -7.008968 30.50002 59.47923
v -7.008984 30.50001 69.64371
v -7.260193 30.50001 69.64371
v -26.47581 30.50003 50.3336
v -7.008984 30.50001 69.64371
v -51.259 30.5 50.27203
v -26.47581 30.50003 50.3336
v -22.8558 30.5 69.64696
v -70.50891 30.5 69.64704
v -51.259 30.5 50.27203
v -22.8558 30.5 69.64696
v -70.50892 30.50001 62.08344
v -51.259 30.5 50.27203
v -70.50891 30.5 69.64704
v -70.50896 37.75002 7.297005
v -54.50945 37.75009 6.146927
v -70.50877 37.74986 22.89699
v -54.50945 37.75009 6.146927
v -51.18449 37.74999 25.52198
v -70.50877 37.74986 22.89699
v -70.50877 37.74986 22.89699
v -51.18449 37.74999 25.52198
v -51.259 37.75 50.27198
v -70.50892 37.75001 62.0834
v -70.50877 37.74986 22.89699
v -51.259 37.75 50.27198
v -70.50892 37.75001 62.0834
v -51.259 37.75 50.27198
v -70.50891 37.75 69.647
v -70.50891 37.75 69.647
v -51.259 37.75 50.27198
v -22.8558 37.75001 69.64691
v -51.259 37.75 50.27198
v -26.47581 37.75003 50.33356
v -22.8558 37.75001 69.64691
v -22.8558 37.75001 69.64691
v -26.47581 37.75003 50.33356
v -7.13459 37.75002 69.64366
v -26.47581 37.75003 50.33356
v -7.008968 37.75002 59.47919
v -7.13459 37.75002 69.64366
v -26.47581 37.75003 50.33356
v -7.009003 37.75002 26.39699
v -7.008968 37.75002 59.47919
v -26.38714 37.75002 25.50227
v -51.18449 37.74999 25.52198
v -54.50945 37.75009 6.146927
v -26.47581 37.75003 50.33356
v -26.38714 37.75002 25.50227
v -7.009003 37.75002 26.39699
v -26.38714 37.75002 25.50227
v -54.50945 37.75009 6.146927
v -21.81313 37.75002 10.39623
v -26.38714 37.75002 25.50227
v -21.81313 37.75002 10.39623
v -7.009003 37.75002 26.39699
v -21.81313 37.75002 10.39623
v -54.50945 37.75009 6.146927
v -7.009014 37.75003 6.147079
v -21.81313 37.75002 10.39623
v -7.009014 37.75003 6.147079
v -7.009003 37.75002 26.39699

vn 6.496906E-06 6.16312E-05 -1
vn -1.788139E-06 1.192093E-06 -1
vn 6.496906E-06 6.16312E-05 -1
vn 6.496906E-06 6.16312E-05 -1
vn 6.496906E-06 6.16312E-05 -1
vn 1.472235E-05 0.0001220703 -1
vn -6.914139E-06 3.951788E-05 1
vn 3.576279E-07 -7.748604E-07 1
vn -1.15633E-05 5.984306E-05 1
vn -6.914139E-06 3.951788E-05 1
vn -1.15633E-05 5.984306E-05 1
vn -1.990795E-05 0.0001208782 1
vn -1 0.0002039671 6.318092E-05
vn -1 0.0001388788 4.249811E-05
vn -1 7.629395E-06 4.285574E-05
vn -1 0.0002039671 6.318092E-05
vn -1 0.0003991127 5.364418E-07
vn -1 0.0001388788 4.249811E-05
vn -1.519918E-05 5.960464E-07 -1
vn -1.519918E-05 5.960464E-07 -1
vn 0 1.192093E-06 -1
vn -1.519918E-05 5.960464E-07 -1
vn -3.039837E-05 0 -1
vn -1.519918E-05 5.960464E-07 -1
vn 1 1.192093E-06 -0.0002121925
vn 1 1.132488E-06 -0.0002121925
vn 1 1.192093E-06 -0.0002121925
vn 1 1.192093E-06 -0.0002121925
vn 1 1.192093E-06 -0.0002121925
vn 1 1.192093E-06 -0.0002123117
vn 1 3.641844E-05 -0.0001541376
vn 1 0.0001268387 -0.0002330542
vn 1 0.0003979206 0
vn 1 3.641844E-05 -0.0001541376
vn 1 -9.858608E-05 -0.0001454353
vn 1 0.0001268387 -0.0002330542
vn -1 6.079674E-06 4.172325E-07
vn -1 7.629395E-06 4.285574E-05
vn -1 0.0001388788 4.249811E-05
vn -1 6.079674E-06 4.172325E-07
vn -1 3.755093E-06 2.384186E-07
vn -1 7.629395E-06 4.285574E-05
vn -1 3.755093E-06 2.384186E-07
vn -1 2.920628E-06 -4.768372E-07
vn -1 1.788139E-06 4.768372E-07
vn -1 3.755093E-06 2.384186E-07
vn -1 6.079674E-06 4.172325E-07
vn -1 2.920628E-06 -4.768372E-07
vn 1 -7.56979E-05 1.490116E-05
vn 1 -9.858608E-05 -0.0001454353
vn 1 3.641844E-05 -0.0001541376
vn 1 -7.56979E-05 1.490116E-05
vn 1 -7.033348E-06 2.628565E-05
vn 1 -9.858608E-05 -0.0001454353
vn 2.145767E-06 -5.960464E-07 1
vn 3.576279E-07 -7.748604E-07 1
vn -6.914139E-06 3.951788E-05 1
vn 2.145767E-06 -5.960464E-07 1
vn 1.907349E-06 0 1
vn 3.576279E-07 -7.748604E-07 1
vn -1.144409E-05 -1 -0.0002188683
vn -3.933907E-06 -1 -0.0001147389
vn -4.172325E-07 -1 -4.148483E-05
vn -7.688999E-06 -1 6.735325E-06
vn -2.384186E-06 -1 1.847744E-06
vn -7.212162E-06 -1 6.318092E-06
vn -7.212162E-06 -1 6.318092E-06
vn -2.384186E-06 -1 1.847744E-06
vn 5.960464E-07 -1 -1.072884E-06
vn 1.847744E-06 -1 4.172325E-07
vn 5.125999E-06 -1 -3.814697E-06
vn 4.947186E-06 -1 -3.099442E-06
vn 4.947186E-06 -1 -3.099442E-06
vn -4.172325E-07 -1 -4.148483E-05
vn -3.933907E-06 -1 -0.0001147389
vn 4.947186E-06 -1 -3.099442E-06
vn 5.125999E-06 -1 -3.814697E-06
vn -4.172325E-07 -1 -4.148483E-05
vn -4.172325E-07 -1 -4.148483E-05
vn 5.125999E-06 -1 -3.814697E-06
vn -2.384186E-07 -1 -1.430511E-06
vn -7.748604E-07 -1 -1.907349E-06
vn -4.172325E-07 -1 -4.148483E-05
vn -2.384186E-07 -1 -1.430511E-06
vn -4.768372E-07 -1 -3.457069E-06
vn -4.172325E-07 -1 -4.148483E-05
vn -7.748604E-07 -1 -1.907349E-06
vn -5.960464E-08 -1 5.960464E-08
vn -4.768372E-07 -1 -3.457069E-06
vn -7.748604E-07 -1 -1.907349E-06
vn -5.960464E-08 -1 5.960464E-08
vn -7.748604E-07 -1 -1.907349E-06
vn -2.384186E-07 -1 -1.430511E-06
vn -5.960464E-08 -1 5.960464E-08
vn -2.384186E-07 -1 -1.430511E-06
vn -2.384186E-06 -1 1.847744E-06
vn -4.172325E-07 -1 -2.980232E-07
vn -5.960464E-08 -1 5.960464E-08
vn -2.384186E-06 -1 1.847744E-06
vn -7.688999E-06 -1 6.735325E-06
vn -4.172325E-07 -1 -2.980232E-07
vn -2.384186E-06 -1 1.847744E-06
vn 5.960464E-07 -1 -1.072884E-06
vn -2.384186E-06 -1 1.847744E-06
vn 1.847744E-06 -1 4.172325E-07
vn 5.960464E-07 -1 -1.072884E-06
vn 1.847744E-06 -1 4.172325E-07
vn -3.576279E-07 -1 -5.364418E-07
vn -3.576279E-07 -1 -5.364418E-07
vn 1.847744E-06 -1 4.172325E-07
vn 6.556511E-07 -1 1.430511E-06
vn 1.847744E-06 -1 4.172325E-07
vn 4.947186E-06 -1 -3.099442E-06
vn 6.556511E-07 -1 1.430511E-06
vn 4.172325E-07 1 4.142523E-05
vn 3.933907E-06 1 0.0001147389
vn 1.144409E-05 1 0.0002188683
vn -6.556511E-07 1 1.072884E-06
vn 2.384186E-06 1 -1.847744E-06
vn 7.212162E-06 1 -6.377697E-06
vn -5.960464E-07 1 -1.430511E-06
vn -5.00679E-06 1 3.159046E-06
vn -1.847744E-06 1 -3.576279E-07
vn 3.933907E-06 1 0.0001147389
vn 4.172325E-07 1 4.142523E-05
vn -5.00679E-06 1 3.159046E-06
vn 4.172325E-07 1 4.142523E-05
vn -5.185604E-06 1 3.755093E-06
vn -5.00679E-06 1 3.159046E-06
vn -5.00679E-06 1 3.159046E-06
vn -5.185604E-06 1 3.755093E-06
vn -1.847744E-06 1 -3.576279E-07
vn 2.384186E-07 1 1.370907E-06
vn -5.185604E-06 1 3.755093E-06
vn 4.172325E-07 1 4.142523E-05
vn 2.384186E-07 1 1.370907E-06
vn 4.172325E-07 1 4.142523E-05
vn 7.748604E-07 1 1.907349E-06
vn 7.748604E-07 1 1.907349E-06
vn 4.172325E-07 1 4.142523E-05
vn 4.768372E-07 1 3.457069E-06
vn 7.748604E-07 1 1.907349E-06
vn 4.768372E-07 1 3.457069E-06
vn 5.960464E-08 1 -5.960464E-08
vn 2.384186E-07 1 1.370907E-06
vn 7.748604E-07 1 1.907349E-06
vn 5.960464E-08 1 -5.960464E-08
vn 2.384186E-06 1 -1.847744E-06
vn 2.384186E-07 1 1.370907E-06
vn 5.960464E-08 1 -5.960464E-08
vn 2.384186E-06 1 -1.847744E-06
vn 5.960464E-08 1 -5.960464E-08
vn 4.172325E-07 1 2.980232E-07
vn 2.384186E-06 1 -1.847744E-06
vn 4.172325E-07 1 2.980232E-07
vn 7.688999E-06 1 -6.79493E-06
vn 7.212162E-06 1 -6.377697E-06
vn 2.384186E-06 1 -1.847744E-06
vn 7.688999E-06 1 -6.79493E-06
vn -1.847744E-06 1 -3.576279E-07
vn 2.384186E-06 1 -1.847744E-06
vn -6.556511E-07 1 1.072884E-06
vn 4.172325E-07 1 5.364418E-07
vn -1.847744E-06 1 -3.576279E-07
vn -6.556511E-07 1 1.072884E-06
vn -5.960464E-07 1 -1.430511E-06
vn -1.847744E-06 1 -3.576279E-07
vn 4.172325E-07 1 5.364418E-07
vn -3.516674E-06 1 1.049042E-05
vn -1.788139E-06 1 5.960464E-06
vn -4.947186E-06 1 3.159046E-06
vn -1.788139E-06 1 5.960464E-06
vn -5.125999E-06 1 3.814697E-06
vn -4.947186E-06 1 3.159046E-06
vn -4.947186E-06 1 3.159046E-06
vn -5.125999E-06 1 3.814697E-06
vn -1.788139E-06 1 -4.172325E-07
vn -4.768372E-07 1 -1.430511E-06
vn -4.947186E-06 1 3.159046E-06
vn -1.788139E-06 1 -4.172325E-07
vn -4.768372E-07 1 -1.430511E-06
vn -1.788139E-06 1 -4.172325E-07
vn 4.768372E-07 1 4.768372E-07
vn 4.768372E-07 1 4.768372E-07
vn -1.788139E-06 1 -4.172325E-07
vn -5.960464E-07 1 1.013279E-06
vn -1.788139E-06 1 -4.172325E-07
vn -1.788139E-07 1 5.960464E-07
vn -5.960464E-07 1 1.013279E-06
vn -5.960464E-07 1 1.013279E-06
vn -1.788139E-07 1 5.960464E-07
vn -1.192093E-07 1 1.132488E-06
vn -1.788139E-07 1 5.960464E-07
vn 4.172325E-07 1 2.980232E-07
vn -1.192093E-07 1 1.132488E-06
vn -1.788139E-07 1 5.960464E-07
vn 5.960464E-08 1 -5.960464E-08
vn 4.172325E-07 1 2.980232E-07
vn 2.384186E-07 1 1.370907E-06
vn -5.125999E-06 1 3.814697E-06
vn -1.788139E-06 1 5.960464E-06
vn -1.788139E-07 1 5.960464E-07
vn 2.384186E-07 1 1.370907E-06
vn 5.960464E-08 1 -5.960464E-08
vn 2.384186E-07 1 1.370907E-06
vn -1.788139E-06 1 5.960464E-06
vn 7.748604E-07 1 1.907349E-06
vn 2.384186E-07 1 1.370907E-06
vn 7.748604E-07 1 1.907349E-06
vn 5.960464E-08 1 -5.960464E-08
vn 7.748604E-07 1 1.907349E-06
vn -1.788139E-06 1 5.960464E-06
vn 4.768372E-07 1 3.457069E-06
vn 7.748604E-07 1 1.907349E-06
vn 4.768372E-07 1 3.457069E-06
vn 5.960464E-08 1 -5.960464E-08

vt 0.2249756 0.4750977
vt 0.2249756 0.4750977
vt 0.2249756 0.4750977
vt 0.2249756 0.4750977
vt 0.2249756 0.4750977
vt 0.2249756 0.4750977
vt 0.2249756 0.4750977
vt 0.2249756 0.4750977
vt 0.2249756 0.4750977
vt 0.2249756 0.4750977
vt 0.2249756 0.4750977
vt 0.2249756 0.4750977
vt 0.2249756 0.4750977
vt 0.2249756 0.4750977
vt 0.2249756 0.4750977
vt 0.2249756 0.4750977
vt 0.2249756 0.4750977
vt 0.2249756 0.4750977
vt 0.2249756 0.4750977
vt 0.2249756 0.4750977
vt 0.2249756 0.4750977
vt 0.2249756 0.4750977
vt 0.2249756 0.4750977
vt 0.2249756 0.4750977
vt 0.2249756 0.4750977
vt 0.2249756 0.4750977
vt 0.2249756 0.4750977
vt 0.2249756 0.4750977
vt 0.2249756 0.4750977
vt 0.2249756 0.4750977
vt 0.2249756 0.4750977
vt 0.2249756 0.4750977
vt 0.2249756 0.4750977
vt 0.2249756 0.4750977
vt 0.2249756 0.4750977
vt 0.2249756 0.4750977
vt 0.2249756 0.4750977
vt 0.2249756 0.4750977
vt 0.2249756 0.4750977
vt 0.2249756 0.4750977
vt 0.2249756 0.4750977
vt 0.2249756 0.4750977
vt 0.2249756 0.4750977
vt 0.2249756 0.4750977
vt 0.2249756 0.4750977
vt 0.2249756 0.4750977
vt 0.2249756 0.4750977
vt 0.2249756 0.4750977
vt 0.2249756 0.4750977
vt 0.2249756 0.4750977
vt 0.2249756 0.4750977
vt 0.2249756 0.4750977
vt 0.2249756 0.4750977
vt 0.2249756 0.4750977
vt 0.2249756 0.4750977
vt 0.2249756 0.4750977
vt 0.2249756 0.4750977
vt 0.2249756 0.4750977
vt 0.2249756 0.4750977
vt 0.2249756 0.4750977
vt 0.8500977 0.2249756
vt 0.8500977 0.2249756
vt 0.8500977 0.2249756
vt 0.8500977 0.2249756
vt 0.8500977 0.2249756
vt 0.8500977 0.2249756
vt 0.8500977 0.2249756
vt 0.8500977 0.2249756
vt 0.8500977 0.2249756
vt 0.8500977 0.2249756
vt 0.8500977 0.2249756
vt 0.8500977 0.2249756
vt 0.8500977 0.2249756
vt 0.8500977 0.2249756
vt 0.8500977 0.2249756
vt 0.8500977 0.2249756
vt 0.8500977 0.2249756
vt 0.8500977 0.2249756
vt 0.8500977 0.2249756
vt 0.8500977 0.2249756
vt 0.8500977 0.2249756
vt 0.8500977 0.2249756
vt 0.8500977 0.2249756
vt 0.8500977 0.2249756
vt 0.8500977 0.2249756
vt 0.8500977 0.2249756
vt 0.8500977 0.2249756
vt 0.8500977 0.2249756
vt 0.8500977 0.2249756
vt 0.8500977 0.2249756
vt 0.8500977 0.2249756
vt 0.8500977 0.2249756
vt 0.8500977 0.2249756
vt 0.8500977 0.2249756
vt 0.8500977 0.2249756
vt 0.8500977 0.2249756
vt 0.8500977 0.2249756
vt 0.8500977 0.2249756
vt 0.8500977 0.2249756
vt 0.8500977 0.2249756
vt 0.8500977 0.2249756
vt 0.8500977 0.2249756
vt 0.8500977 0.2249756
vt 0.8500977 0.2249756
vt 0.8500977 0.2249756
vt 0.8500977 0.2249756
vt 0.8500977 0.2249756
vt 0.8500977 0.2249756
vt 0.8500977 0.2249756
vt 0.8500977 0.2249756
vt 0.8500977 0.2249756
vt 0.8500977 0.2249756
vt 0.8500977 0.2249756
vt 0.8500977 0.2249756
vt 0.8500977 0.2249756
vt 0.8500977 0.2249756
vt 0.8500977 0.2249756
vt 0.8500977 0.2249756
vt 0.8500977 0.2249756
vt 0.8500977 0.2249756
vt 0.8500977 0.2249756
vt 0.8500977 0.2249756
vt 0.8500977 0.2249756
vt 0.8500977 0.2249756
vt 0.8500977 0.2249756
vt 0.8500977 0.2249756
vt 0.8500977 0.2249756
vt 0.8500977 0.2249756
vt 0.8500977 0.2249756
vt 0.8500977 0.2249756
vt 0.8500977 0.2249756
vt 0.8500977 0.2249756
vt 0.8500977 0.2249756
vt 0.8500977 0.2249756
vt 0.8500977 0.2249756
vt 0.8500977 0.2249756
vt 0.8500977 0.2249756
vt 0.8500977 0.2249756
vt 0.8500977 0.2249756
vt 0.8500977 0.2249756
vt 0.8500977 0.2249756
vt 0.8500977 0.2249756
vt 0.8500977 0.2249756
vt 0.8500977 0.2249756
vt 0.8500977 0.2249756
vt 0.8500977 0.2249756
vt 0.8500977 0.2249756
vt 0.8500977 0.2249756
vt 0.8500977 0.2249756
vt 0.8500977 0.2249756
vt 0.8500977 0.2249756
vt 0.8500977 0.2249756
vt 0.8500977 0.2249756
vt 0.8500977 0.2249756
vt 0.8500977 0.2249756
vt 0.8500977 0.2249756
vt 0.8500977 0.2249756
vt 0.8500977 0.2249756
vt 0.8500977 0.2249756
vt 0.8500977 0.2249756
vt 0.8500977 0.2249756
vt 0.8500977 0.2249756
vt 0.8500977 0.2249756
vt 0.8500977 0.2249756
vt 0.8500977 0.2249756
vt 0.8500977 0.2249756
vt 0.8500977 0.2249756
vt 0.8500977 0.2249756
vt 0.8500977 0.2249756
vt 0.8500977 0.2249756
vt 0.8500977 0.2249756
vt 0.8500977 0.2249756
vt 0.8500977 0.2249756
vt 0.8500977 0.2249756
vt 0.8500977 0.2249756
vt 0.8500977 0.2249756
vt 0.8500977 0.2249756
vt 0.8500977 0.2249756
vt 0.8500977 0.2249756
vt 0.8500977 0.2249756
vt 0.8500977 0.2249756
vt 0.8500977 0.2249756
vt 0.8500977 0.2249756
vt 0.8500977 0.2249756
vt 0.8500977 0.2249756
vt 0.8500977 0.2249756
vt 0.8500977 0.2249756
vt 0.8500977 0.2249756
vt 0.8500977 0.2249756
vt 0.8500977 0.2249756
vt 0.8500977 0.2249756
vt 0.8500977 0.2249756
vt 0.8500977 0.2249756
vt 0.8500977 0.2249756
vt 0.8500977 0.2249756
vt 0.8500977 0.2249756
vt 0.8500977 0.2249756
vt 0.8500977 0.2249756
vt 0.8500977 0.2249756
vt 0.8500977 0.2249756
vt 0.8500977 0.2249756
vt 0.8500977 0.2249756
vt 0.8500977 0.2249756
vt 0.8500977 0.2249756
vt 0.8500977 0.2249756
vt 0.8500977 0.2249756
vt 0.8500977 0.2249756
vt 0.8500977 0.2249756
vt 0.8500977 0.2249756
vt 0.8500977 0.2249756
vt 0.8500977 0.2249756
vt 0.8500977 0.2249756
vt 0.8500977 0.2249756
vt 0.8500977 0.2249756
vt 0.8500977 0.2249756
vt 0.8500977 0.2249756

g PARKINGCombined_Meshes_2411_0
usemtl PARKINGCombined_Meshes_2411_0
usemap PARKINGCombined_Meshes_2411_0
f 1/1/1 3/3/3 2/2/2
f 4/4/4 6/6/6 5/5/5
f 7/7/7 9/9/9 8/8/8
f 10/10/10 12/12/12 11/11/11
f 13/13/13 15/15/15 14/14/14
f 16/16/16 18/18/18 17/17/17
f 19/19/19 21/21/21 20/20/20
f 22/22/22 24/24/24 23/23/23
f 25/25/25 27/27/27 26/26/26
f 28/28/28 30/30/30 29/29/29
f 31/31/31 33/33/33 32/32/32
f 34/34/34 36/36/36 35/35/35
f 37/37/37 39/39/39 38/38/38
f 40/40/40 42/42/42 41/41/41
f 43/43/43 45/45/45 44/44/44
f 46/46/46 48/48/48 47/47/47
f 49/49/49 51/51/51 50/50/50
f 52/52/52 54/54/54 53/53/53
f 55/55/55 57/57/57 56/56/56
f 58/58/58 60/60/60 59/59/59
f 61/61/61 63/63/63 62/62/62
f 64/64/64 66/66/66 65/65/65
f 67/67/67 69/69/69 68/68/68
f 70/70/70 72/72/72 71/71/71
f 73/73/73 75/75/75 74/74/74
f 76/76/76 78/78/78 77/77/77
f 79/79/79 81/81/81 80/80/80
f 82/82/82 84/84/84 83/83/83
f 85/85/85 87/87/87 86/86/86
f 88/88/88 90/90/90 89/89/89
f 91/91/91 93/93/93 92/92/92
f 94/94/94 96/96/96 95/95/95
f 97/97/97 99/99/99 98/98/98
f 100/100/100 102/102/102 101/101/101
f 103/103/103 105/105/105 104/104/104
f 106/106/106 108/108/108 107/107/107
f 109/109/109 111/111/111 110/110/110
f 112/112/112 114/114/114 113/113/113
f 115/115/115 117/117/117 116/116/116
f 118/118/118 120/120/120 119/119/119
f 121/121/121 123/123/123 122/122/122
f 124/124/124 126/126/126 125/125/125
f 127/127/127 129/129/129 128/128/128
f 130/130/130 132/132/132 131/131/131
f 133/133/133 135/135/135 134/134/134
f 136/136/136 138/138/138 137/137/137
f 139/139/139 141/141/141 140/140/140
f 142/142/142 144/144/144 143/143/143
f 145/145/145 147/147/147 146/146/146
f 148/148/148 150/150/150 149/149/149
f 151/151/151 153/153/153 152/152/152
f 154/154/154 156/156/156 155/155/155
f 157/157/157 159/159/159 158/158/158
f 160/160/160 162/162/162 161/161/161
f 163/163/163 165/165/165 164/164/164
f 166/166/166 168/168/168 167/167/167
f 169/169/169 171/171/171 170/170/170
f 172/172/172 174/174/174 173/173/173
f 175/175/175 177/177/177 176/176/176
f 178/178/178 180/180/180 179/179/179
f 181/181/181 183/183/183 182/182/182
f 184/184/184 186/186/186 185/185/185
f 187/187/187 189/189/189 188/188/188
f 190/190/190 192/192/192 191/191/191
f 193/193/193 195/195/195 194/194/194
f 196/196/196 198/198/198 197/197/197
f 199/199/199 201/201/201 200/200/200
f 202/202/202 204/204/204 203/203/203
f 205/205/205 207/207/207 206/206/206
f 208/208/208 210/210/210 209/209/209
f 211/211/211 213/213/213 212/212/212
f 214/214/214 216/216/216 215/215/215
