#Plane_(2)_4351_8.obj

v -32.44411 0.0006549833 -34.37508
v -32.44408 0.000628077 -20.625
v -34.44413 0.0009015693 -34.37538
v -34.44411 0.0008018178 -12.87536
v -32.44407 0.0006146237 -17.625
v -32.44404 0.000601419 -12.87501
v -34.94415 0.001001569 -34.8754
v -31.9441 0.0006520604 -34.87523

vn 1.847744E-06 1 -0.0001232624
vn 3.576279E-06 1 -0.000110805
vn 3.218651E-06 1 -0.0001140833
vn 3.874302E-06 1 -0.000103116
vn 3.516674E-06 1 -0.000102222
vn 2.682209E-06 1 -0.0001001954
vn 9.357929E-05 1 -0.0001198649
vn 0.000110507 1 -0.0001164675

vt 32.4375 -34.375
vt 32.4375 -20.625
vt 34.4375 -34.375
vt 34.4375 -12.875
vt 32.4375 -17.625
vt 32.4375 -12.875
vt 34.9375 -34.875
vt 31.9375 -34.875

g Plane_(2)_4351_8
usemtl Plane_(2)_4351_8
usemap Plane_(2)_4351_8
f 1/1/1 3/3/3 2/2/2
f 3/3/3 4/4/4 2/2/2
f 4/4/4 5/5/5 2/2/2
f 4/4/4 6/6/6 5/5/5
f 7/7/7 3/3/3 1/1/1
f 7/7/7 1/1/1 8/8/8
