#PROVINCECombined_Meshes_2759_0.obj

v -44.58769 -2.700262 37.80961
v -42.68766 -2.700116 30.05689
v -31.42356 -2.700147 28.67469
v -42.68766 -2.700116 30.05689
v -31.02059 -2.700099 28.36891
v -31.42356 -2.700147 28.67469
v -44.58769 -2.700262 37.80961
v -36.69946 -2.70015 36.11546
v -42.37834 -2.700201 43.86201
v -44.58769 -2.700262 37.80961
v -31.42356 -2.700147 28.67469
v -36.69946 -2.70015 36.11546
v -46.2351 -2.700099 24.38436
v -38.18576 -2.700099 24.53446
v -46.06972 -2.700116 26.41714
v -46.06972 -2.700116 26.41714
v -38.18576 -2.700099 24.53446
v -42.68766 -2.700116 30.05689
v -42.68766 -2.700116 30.05689
v -38.18576 -2.700099 24.53446
v -31.02059 -2.700099 28.36891
v -31.02059 -2.700099 28.36891
v -30.22023 -2.700124 33.09011
v -31.42356 -2.700147 28.67469
v -42.37834 -2.700201 43.86201
v -36.69946 -2.70015 36.11546
v -32.74073 -2.70015 30.90366
v -32.74073 -2.70015 30.90366
v -36.69946 -2.70015 36.11546
v -31.42356 -2.700147 28.67469
v -34.12585 -2.678591 36.4592
v -34.30777 -2.680622 40.04252
v -42.37834 -2.700201 43.86201
v -32.74073 -2.70015 30.90366
v -34.12585 -2.678591 36.4592
v -42.37834 -2.700201 43.86201
v -34.12585 -2.678591 36.4592
v -32.74073 -2.70015 30.90366
v -32.31037 -2.687899 34.74296
v -42.37834 -2.700201 43.86201
v -35.43746 -2.624959 42.00451
v -43.1596 -2.631289 52.81731
v -34.30777 -2.680622 40.04252
v -35.43746 -2.624959 42.00451
v -42.37834 -2.700201 43.86201
v -43.1596 -2.631289 52.81731
v -35.72596 -2.614186 48.98295
v -37.51789 -2.608799 52.03567
v -43.1596 -2.631289 52.81731
v -35.84206 -2.619573 45.25432
v -35.72596 -2.614186 48.98295
v -35.43746 -2.624959 42.00451
v -35.84206 -2.619573 45.25432
v -43.1596 -2.631289 52.81731
v -36.25462 -2.612425 53.6927
v -34.33812 -2.606824 55.82058
v -38.36655 -2.603412 55.00254
v -36.25462 -2.612425 53.6927
v -34.23376 -2.618025 52.73185
v -34.33812 -2.606824 55.82058
v -32.74073 -2.70015 30.90366
v -30.22023 -2.700124 33.09011
v -32.31037 -2.687899 34.74296
v -35.43746 -2.624959 42.00451
v -32.22062 -2.648213 40.73298
v -34.35727 -2.629225 43.16288
v -32.74073 -2.70015 30.90366
v -31.42356 -2.700147 28.67469
v -30.22023 -2.700124 33.09011
v -34.12585 -2.678591 36.4592
v -32.22062 -2.648213 40.73298
v -34.30777 -2.680622 40.04252
v -32.22062 -2.648213 40.73298
v -34.12585 -2.678591 36.4592
v -32.5986 -2.661144 38.02841
v -34.12585 -2.678591 36.4592
v -31.55452 -2.674075 35.93856
v -32.5986 -2.661144 38.02841
v -34.12585 -2.678591 36.4592
v -32.31037 -2.687899 34.74296
v -31.55452 -2.674075 35.93856
v -34.30777 -2.680622 40.04252
v -32.22062 -2.648213 40.73298
v -35.43746 -2.624959 42.00451
v -34.35727 -2.629225 43.16288
v -35.84206 -2.619573 45.25432
v -35.43746 -2.624959 42.00451
v -35.72596 -2.614186 48.98295
v -35.84206 -2.619573 45.25432
v -34.26078 -2.623625 50.13572
v -35.84206 -2.619573 45.25432
v -34.35727 -2.629225 43.16288
v -34.26078 -2.623625 50.13572
v -37.51789 -2.608799 52.03567
v -38.36655 -2.603412 55.00254
v -44 -2.599999 54.1
v -44 -2.599999 54.1
v -43.1596 -2.631289 52.81731
v -37.51789 -2.608799 52.03567
v -38.36655 -2.603412 55.00254
v -37.51789 -2.608799 52.03567
v -36.25462 -2.612425 53.6927
v -35.72596 -2.614186 48.98295
v -34.26078 -2.623625 50.13572
v -34.23376 -2.618025 52.73185
v -35.72596 -2.614186 48.98295
v -34.23376 -2.618025 52.73185
v -37.51789 -2.608799 52.03567
v -37.51789 -2.608799 52.03567
v -34.23376 -2.618025 52.73185
v -36.25462 -2.612425 53.6927
v -42.51 -2.517319 35.38861
v -42.51 -2.564067 31.90347
v -40.20227 -2.572182 31.62499
v -42.51 -2.517319 35.38861
v -40.20227 -2.572182 31.62499
v -35.47943 -2.546326 34.05836
v -43.29061 -2.575469 42.40297
v -42.51 -2.517319 35.38861
v -35.47943 -2.546326 34.05836
v -43.29061 -2.575469 42.40297
v -35.47943 -2.546326 34.05836
v -36.09665 -2.586939 40.69847
v -43.29061 -2.575469 42.40297
v -36.09665 -2.586939 40.69847
v -36.84906 -2.49896 45.23654
v -47.57968 -2.603784 42.07749
v -42.51 -2.517319 35.38861
v -43.29061 -2.575469 42.40297
v -48.76472 -2.540707 32.6369
v -48.20718 -2.571995 31.89187
v -42.51 -2.564067 31.90347
v -48.76472 -2.540707 32.6369
v -42.51 -2.564067 31.90347
v -42.51 -2.517319 35.38861
v -48.76472 -2.540707 32.6369
v -42.51 -2.517319 35.38861
v -48.33065 -2.572246 41.27072
v -42.51 -2.517319 35.38861
v -47.57968 -2.603784 42.07749
v -48.33065 -2.572246 41.27072
v -42.21854 -2.572759 43.81951
v -43.29061 -2.575469 42.40297
v -36.84906 -2.49896 45.23654
v -37.10729 -2.618084 52.17585
v -38.29135 -2.615475 53.11673
v -38.10643 -2.49895 51.32897
v -41.77119 -2.651855 53.13136
v -43.22405 -2.665844 51.72628
v -42.00462 -2.486126 51.82796
v -42.21854 -2.572759 43.81951
v -36.84906 -2.49896 45.23654
v -42.00462 -2.486126 51.82796
v -42.00462 -2.486126 51.82796
v -36.84906 -2.49896 45.23654
v -38.10643 -2.49895 51.32897
v -34.76367 -2.708848 33.19397
v -36.09665 -2.586939 40.69847
v -35.47943 -2.546326 34.05836
v -34.76367 -2.708848 33.19397
v -35.44552 -2.749461 40.57891
v -36.09665 -2.586939 40.69847
v -39.981 -2.734705 30.48765
v -35.47943 -2.546326 34.05836
v -40.20227 -2.572182 31.62499
v -39.981 -2.734705 30.48765
v -34.76367 -2.708848 33.19397
v -35.47943 -2.546326 34.05836
v -42.53036 -2.72659 30.79737
v -40.20227 -2.572182 31.62499
v -42.51 -2.564067 31.90347
v -42.53036 -2.72659 30.79737
v -39.981 -2.734705 30.48765
v -40.20227 -2.572182 31.62499
v -48.6431 -2.734518 30.37562
v -42.51 -2.564067 31.90347
v -48.20718 -2.571995 31.89187
v -48.6431 -2.734518 30.37562
v -42.53036 -2.72659 30.79737
v -42.51 -2.564067 31.90347
v -49.94682 -2.70323 32.02502
v -48.20718 -2.571995 31.89187
v -48.76472 -2.540707 32.6369
v -49.94682 -2.70323 32.02502
v -48.6431 -2.734518 30.37562
v -48.20718 -2.571995 31.89187
v -49.45025 -2.734768 41.30213
v -48.76472 -2.540707 32.6369
v -48.33065 -2.572246 41.27072
v -49.45025 -2.734768 41.30213
v -49.94682 -2.70323 32.02502
v -48.76472 -2.540707 32.6369
v -48.36483 -2.766307 42.70993
v -48.33065 -2.572246 41.27072
v -47.57968 -2.603784 42.07749
v -48.36483 -2.766307 42.70993
v -49.45025 -2.734768 41.30213
v -48.33065 -2.572246 41.27072
v -43.89936 -2.737992 43.14161
v -47.57968 -2.603784 42.07749
v -43.29061 -2.575469 42.40297
v -43.89936 -2.737992 43.14161
v -48.36483 -2.766307 42.70993
v -47.57968 -2.603784 42.07749
v -43.16028 -2.735281 44.01535
v -43.29061 -2.575469 42.40297
v -42.21854 -2.572759 43.81951
v -43.16028 -2.735281 44.01535
v -43.89936 -2.737992 43.14161
v -43.29061 -2.575469 42.40297
v -35.44552 -2.749461 40.57891
v -36.84906 -2.49896 45.23654
v -36.09665 -2.586939 40.69847
v -35.44552 -2.749461 40.57891
v -36.12951 -2.661483 45.72828
v -36.84906 -2.49896 45.23654
v -36.12951 -2.661483 45.72828
v -38.10643 -2.49895 51.32897
v -36.84906 -2.49896 45.23654
v -36.12951 -2.661483 45.72828
v -37.10729 -2.618084 52.17585
v -38.10643 -2.49895 51.32897
v -38.29135 -2.615475 53.11673
v -42.00462 -2.486126 51.82796
v -38.10643 -2.49895 51.32897
v -38.29135 -2.615475 53.11673
v -41.77119 -2.651855 53.13136
v -42.00462 -2.486126 51.82796
v -43.22405 -2.665844 51.72628
v -42.21854 -2.572759 43.81951
v -42.00462 -2.486126 51.82796
v -43.22405 -2.665844 51.72628
v -43.16028 -2.735281 44.01535
v -42.21854 -2.572759 43.81951

vn -8.881092E-06 1 1.370907E-06
vn 7.033348E-06 1 5.352497E-05
vn -1.430511E-05 1 3.743172E-05
vn 7.033348E-06 1 5.352497E-05
vn -2.545118E-05 1 7.164478E-05
vn -1.430511E-05 1 3.743172E-05
vn -8.881092E-06 1 1.370907E-06
vn 5.596876E-05 1 4.458427E-05
vn -0.007469177 1 -0.009155273
vn -8.881092E-06 1 1.370907E-06
vn -1.430511E-05 1 3.743172E-05
vn 5.596876E-05 1 4.458427E-05
vn -1.788139E-07 1 8.46386E-06
vn -1.013279E-06 1 4.11272E-06
vn -9.536743E-07 1 5.066395E-06
vn -9.536743E-07 1 5.066395E-06
vn -1.013279E-06 1 4.11272E-06
vn 7.033348E-06 1 5.352497E-05
vn 7.033348E-06 1 5.352497E-05
vn -1.013279E-06 1 4.11272E-06
vn -2.545118E-05 1 7.164478E-05
vn -2.545118E-05 1 7.164478E-05
vn 0.0009822845 1 -0.001171112
vn -1.430511E-05 1 3.743172E-05
vn -0.007469177 1 -0.009155273
vn 5.596876E-05 1 4.458427E-05
vn -0.000440836 1 -0.002098083
vn -0.000440836 1 -0.002098083
vn 5.596876E-05 1 4.458427E-05
vn -1.430511E-05 1 3.743172E-05
vn -0.005455017 1 -0.004264832
vn -0.01114655 1 -0.01799011
vn -0.007469177 1 -0.009155273
vn -0.000440836 1 -0.002098083
vn -0.005455017 1 -0.004264832
vn -0.007469177 1 -0.009155273
vn -0.005455017 1 -0.004264832
vn -0.000440836 1 -0.002098083
vn 0.000443697 1 -0.005401611
vn -0.007469177 1 -0.009155273
vn -0.01338196 0.9995117 -0.02702332
vn -0.01320648 1 -0.008842468
vn -0.01114655 1 -0.01799011
vn -0.01338196 0.9995117 -0.02702332
vn -0.007469177 1 -0.009155273
vn -0.003803253 1 -0.002649307
vn 0.002241135 1 -0.001970291
vn 0.001139641 1 -0.001361847
vn -0.003803253 1 -0.002649307
vn 0.002258301 1 -0.001415253
vn 0.002241135 1 -0.001970291
vn 0.002531052 1 -0.001797676
vn 0.002258301 1 -0.001415253
vn -0.003803253 1 -0.002649307
vn 0.002342224 1 -0.002103806
vn 0.001377106 1 -0.003871918
vn 0.002122879 1 -0.002149582
vn 0.002342224 1 -0.002103806
vn 0.003725052 1 -0.001469612
vn 0.001377106 1 -0.003871918
vn -0.000440836 1 -0.002098083
vn 0.0009822845 1 -0.001171112
vn 0.000443697 1 -0.005401611
vn 0.002531052 1 -0.001797676
vn 0.006343842 1 -0.002235413
vn 0.005554199 1 -0.001379967
vn -0.000440836 1 -0.002098083
vn -1.430511E-05 1 3.743172E-05
vn 0.0009822845 1 -0.001171112
vn -0.005455017 1 -0.004264832
vn -0.009407043 1 -0.0117569
vn -0.01114655 1 -0.01799011
vn -0.009407043 1 -0.0117569
vn -0.005455017 1 -0.004264832
vn -0.005474091 1 -0.00579071
vn -0.005455017 1 -0.004264832
vn -0.003490448 1 -0.008560181
vn -0.005474091 1 -0.00579071
vn -0.005455017 1 -0.004264832
vn 0.000443697 1 -0.005401611
vn -0.003490448 1 -0.008560181
vn -0.01114655 1 -0.01799011
vn -0.009407043 1 -0.0117569
vn -0.01338196 0.9995117 -0.02702332
vn 0.005554199 1 -0.001379967
vn 0.002258301 1 -0.001415253
vn 0.002531052 1 -0.001797676
vn 0.002241135 1 -0.001970291
vn 0.002258301 1 -0.001415253
vn 0.007080078 1 -0.001602173
vn 0.002258301 1 -0.001415253
vn 0.005554199 1 -0.001379967
vn 0.007080078 1 -0.001602173
vn 0.001139641 1 -0.001361847
vn 0.002122879 1 -0.002149582
vn 0.0008573532 1 -0.001570702
vn -0.008094788 0.9995117 -0.0296936
vn -0.008094788 0.9995117 -0.0296936
vn -0.008094788 0.9995117 -0.0296936
vn 0.002122879 1 -0.002149582
vn 0.001139641 1 -0.001361847
vn 0.002342224 1 -0.002103806
vn 0.002241135 1 -0.001970291
vn 0.007080078 1 -0.001602173
vn 0.003725052 1 -0.001469612
vn 0.002241135 1 -0.001970291
vn 0.003725052 1 -0.001469612
vn 0.001139641 1 -0.001361847
vn 0.001139641 1 -0.001361847
vn 0.003725052 1 -0.001469612
vn 0.002342224 1 -0.002103806
vn 0.001869202 1 -0.01348114
vn 0.0009188652 0.9995117 -0.02325439
vn 0.001722336 1 -0.01351929
vn 0.001869202 1 -0.01348114
vn 0.001722336 1 -0.01351929
vn 0.00154686 1 -0.0136261
vn 0.0005860329 1 0.007610321
vn 0.002166748 1 0.01125336
vn 0.004463196 1 0.007671356
vn 0.0005860329 1 0.007610321
vn 0.004463196 1 0.007671356
vn 0.003112793 1 0.006404877
vn -0.003120422 1 -0.01989746
vn -0.003120422 1 -0.01989746
vn -0.003120422 1 -0.01989746
vn 0.00415802 1 0.01608276
vn 0.002166748 1 0.01125336
vn 0.0005860329 1 0.007610321
vn 0.0004293919 0.9995117 -0.02816772
vn -0.001302719 0.9990234 -0.04293823
vn 0.0009188652 0.9995117 -0.02325439
vn 0.0004293919 0.9995117 -0.02816772
vn 0.0009188652 0.9995117 -0.02325439
vn 0.001869202 1 -0.01348114
vn -0.005466461 1 0.003929138
vn 0.002166748 1 0.01125336
vn 0.005012512 1 0.01429749
vn 0.002166748 1 0.01125336
vn 0.00415802 1 0.01608276
vn 0.005012512 1 0.01429749
vn -0.01654053 1 0.01060486
vn -0.01654053 1 0.01060486
vn -0.01654053 1 0.01060486
vn 0.05859375 0.9956055 0.07098389
vn 0.05859375 0.9956055 0.07098389
vn 0.05859375 0.9956055 0.07098389
vn -0.1564941 0.9760742 0.1520996
vn -0.1564941 0.9760742 0.1520996
vn -0.1564941 0.9760742 0.1520996
vn -0.01096344 1 -0.01052094
vn -0.003793716 1 -0.00491333
vn -0.003793716 1 -0.00491333
vn -0.003793716 1 -0.00491333
vn -0.003793716 1 -0.00491333
vn 0.003377914 1 0.0006957054
vn 0.2509766 0.9677734 0.02888489
vn 0.2509766 0.9677734 0.02888489
vn 0.255127 0.9663086 0.02963257
vn 0.2509766 0.9677734 0.02888489
vn 0.2469482 0.96875 0.02812195
vn 0.2509766 0.9677734 0.02888489
vn 0.06268311 0.9892578 -0.1312256
vn 0.06268311 0.9892578 -0.1312256
vn 0.06130981 0.9897461 -0.1295166
vn 0.06268311 0.9892578 -0.1312256
vn 0.06402588 0.9892578 -0.1329346
vn 0.06268311 0.9892578 -0.1312256
vn -0.0141983 0.9892578 -0.1446533
vn -0.0141983 0.9892578 -0.1446533
vn -0.01403046 0.9892578 -0.1451416
vn -0.0141983 0.9892578 -0.1446533
vn -0.01436615 0.9892578 -0.144165
vn -0.0141983 0.9892578 -0.1446533
vn 0.003795624 0.9921875 -0.1258545
vn 0.003795624 0.9921875 -0.1258545
vn -0.001167297 0.9941406 -0.1062622
vn 0.003795624 0.9921875 -0.1258545
vn 0.008758545 0.9892578 -0.1455078
vn 0.003795624 0.9921875 -0.1258545
vn -0.08197021 0.9921875 -0.09332275
vn -0.08197021 0.9921875 -0.09332275
vn -0.08270264 0.9912109 -0.1035156
vn -0.08197021 0.9921875 -0.09332275
vn -0.08129883 0.9931641 -0.08306885
vn -0.08197021 0.9921875 -0.09332275
vn -0.1425781 0.9897461 0.01088715
vn -0.1425781 0.9897461 0.01088715
vn -0.1433105 0.9897461 0.01081848
vn -0.1425781 0.9897461 0.01088715
vn -0.1417236 0.9897461 0.01095581
vn -0.1425781 0.9897461 0.01088715
vn -0.1189575 0.984375 0.1298828
vn -0.1189575 0.984375 0.1298828
vn -0.09893799 0.9863281 0.1306152
vn -0.1189575 0.984375 0.1298828
vn -0.138916 0.9819336 0.1291504
vn -0.1189575 0.984375 0.1298828
vn -0.02432251 0.9780273 0.2075195
vn -0.02432251 0.9780273 0.2075195
vn -0.02148438 0.9799805 0.197876
vn -0.02432251 0.9780273 0.2075195
vn -0.02716064 0.9755859 0.217041
vn -0.02432251 0.9780273 0.2075195
vn -0.1392822 0.984375 0.1088257
vn -0.1392822 0.984375 0.1088257
vn -0.1469727 0.9829102 0.109314
vn -0.1392822 0.984375 0.1088257
vn -0.1317139 0.9853516 0.1082764
vn -0.1392822 0.984375 0.1088257
vn 0.2293701 0.9731445 0.01678467
vn 0.2293701 0.9731445 0.01678467
vn 0.2458496 0.9692383 0.02198792
vn 0.2293701 0.9731445 0.01678467
vn 0.2127686 0.9770508 0.01156616
vn 0.2293701 0.9731445 0.01678467
vn 0.1522217 0.987793 0.02503967
vn 0.1522217 0.987793 0.02503967
vn 0.1939697 0.9799805 0.04003906
vn 0.1522217 0.987793 0.02503967
vn 0.1100464 0.9936523 0.009994507
vn 0.1522217 0.987793 0.02503967
vn 0.0009665489 0.9951172 0.09710693
vn 0.0009665489 0.9951172 0.09710693
vn 0.01176453 0.9975586 0.06622314
vn 0.0009665489 0.9951172 0.09710693
vn -0.00983429 0.9916992 0.1278076
vn 0.0009665489 0.9951172 0.09710693
vn -0.1586914 0.9873047 -0.008560181
vn -0.1586914 0.9873047 -0.008560181
vn -0.1452637 0.9892578 -0.006824493
vn -0.1586914 0.9873047 -0.008560181
vn -0.1721191 0.9848633 -0.01029205
vn -0.1586914 0.9873047 -0.008560181

vt 0.6000977 0.2249756
vt 0.6000977 0.2249756
vt 0.6000977 0.2249756
vt 0.6000977 0.2249756
vt 0.6000977 0.2249756
vt 0.6000977 0.2249756
vt 0.6000977 0.2249756
vt 0.6000977 0.2249756
vt 0.6000977 0.2249756
vt 0.6000977 0.2249756
vt 0.6000977 0.2249756
vt 0.6000977 0.2249756
vt 0.6000977 0.2249756
vt 0.6000977 0.2249756
vt 0.6000977 0.2249756
vt 0.6000977 0.2249756
vt 0.6000977 0.2249756
vt 0.6000977 0.2249756
vt 0.6000977 0.2249756
vt 0.6000977 0.2249756
vt 0.6000977 0.2249756
vt 0.6000977 0.2249756
vt 0.6000977 0.2249756
vt 0.6000977 0.2249756
vt 0.6000977 0.2249756
vt 0.6000977 0.2249756
vt 0.6000977 0.2249756
vt 0.6000977 0.2249756
vt 0.6000977 0.2249756
vt 0.6000977 0.2249756
vt 0.6000977 0.2249756
vt 0.6000977 0.2249756
vt 0.6000977 0.2249756
vt 0.6000977 0.2249756
vt 0.6000977 0.2249756
vt 0.6000977 0.2249756
vt 0.6000977 0.2249756
vt 0.6000977 0.2249756
vt 0.6000977 0.2249756
vt 0.6000977 0.2249756
vt 0.6000977 0.2249756
vt 0.6000977 0.2249756
vt 0.6000977 0.2249756
vt 0.6000977 0.2249756
vt 0.6000977 0.2249756
vt 0.6000977 0.2249756
vt 0.6000977 0.2249756
vt 0.6000977 0.2249756
vt 0.6000977 0.2249756
vt 0.6000977 0.2249756
vt 0.6000977 0.2249756
vt 0.6000977 0.2249756
vt 0.6000977 0.2249756
vt 0.6000977 0.2249756
vt 0.6000977 0.2249756
vt 0.6000977 0.2249756
vt 0.6000977 0.2249756
vt 0.6000977 0.2249756
vt 0.6000977 0.2249756
vt 0.6000977 0.2249756
vt 0.09997559 0.6000977
vt 0.09997559 0.6000977
vt 0.09997559 0.6000977
vt 0.09997559 0.6000977
vt 0.09997559 0.6000977
vt 0.09997559 0.6000977
vt 0.09997559 0.6000977
vt 0.09997559 0.6000977
vt 0.09997559 0.6000977
vt 0.09997559 0.6000977
vt 0.09997559 0.6000977
vt 0.09997559 0.6000977
vt 0.09997559 0.6000977
vt 0.09997559 0.6000977
vt 0.09997559 0.6000977
vt 0.09997559 0.6000977
vt 0.09997559 0.6000977
vt 0.09997559 0.6000977
vt 0.09997559 0.6000977
vt 0.09997559 0.6000977
vt 0.09997559 0.6000977
vt 0.09997559 0.6000977
vt 0.09997559 0.6000977
vt 0.09997559 0.6000977
vt 0.09997559 0.6000977
vt 0.09997559 0.6000977
vt 0.09997559 0.6000977
vt 0.09997559 0.6000977
vt 0.09997559 0.6000977
vt 0.09997559 0.6000977
vt 0.09997559 0.6000977
vt 0.09997559 0.6000977
vt 0.09997559 0.6000977
vt 0.09997559 0.6000977
vt 0.09997559 0.6000977
vt 0.09997559 0.6000977
vt 0.09997559 0.6000977
vt 0.09997559 0.6000977
vt 0.09997559 0.6000977
vt 0.09997559 0.6000977
vt 0.09997559 0.6000977
vt 0.09997559 0.6000977
vt 0.09997559 0.6000977
vt 0.09997559 0.6000977
vt 0.09997559 0.6000977
vt 0.09997559 0.6000977
vt 0.09997559 0.6000977
vt 0.09997559 0.6000977
vt 0.09997559 0.6000977
vt 0.09997559 0.6000977
vt 0.09997559 0.6000977
vt 0.09997559 0.2249756
vt 0.09997559 0.2249756
vt 0.09997559 0.2249756
vt 0.09997559 0.2249756
vt 0.09997559 0.2249756
vt 0.09997559 0.2249756
vt 0.09997559 0.2249756
vt 0.09997559 0.2249756
vt 0.09997559 0.2249756
vt 0.09997559 0.2249756
vt 0.09997559 0.2249756
vt 0.09997559 0.2249756
vt 0.09997559 0.2249756
vt 0.09997559 0.2249756
vt 0.09997559 0.2249756
vt 0.09997559 0.2249756
vt 0.09997559 0.2249756
vt 0.09997559 0.2249756
vt 0.09997559 0.2249756
vt 0.09997559 0.2249756
vt 0.09997559 0.2249756
vt 0.09997559 0.2249756
vt 0.09997559 0.2249756
vt 0.09997559 0.2249756
vt 0.09997559 0.2249756
vt 0.09997559 0.2249756
vt 0.09997559 0.2249756
vt 0.09997559 0.2249756
vt 0.09997559 0.2249756
vt 0.09997559 0.2249756
vt 0.09997559 0.2249756
vt 0.09997559 0.2249756
vt 0.09997559 0.2249756
vt 0.09997559 0.2249756
vt 0.09997559 0.2249756
vt 0.09997559 0.2249756
vt 0.09997559 0.2249756
vt 0.09997559 0.2249756
vt 0.09997559 0.2249756
vt 0.09997559 0.2249756
vt 0.09997559 0.2249756
vt 0.09997559 0.2249756
vt 0.09997559 0.2249756
vt 0.09997559 0.2249756
vt 0.09997559 0.2249756
vt 0.09997559 0.2249756
vt 0.09997559 0.2249756
vt 0.09997559 0.2249756
vt 0.09997559 0.2249756
vt 0.09997559 0.2249756
vt 0.09997559 0.2249756
vt 0.09997559 0.2249756
vt 0.09997559 0.2249756
vt 0.09997559 0.2249756
vt 0.09997559 0.2249756
vt 0.09997559 0.2249756
vt 0.09997559 0.2249756
vt 0.09997559 0.2249756
vt 0.09997559 0.2249756
vt 0.09997559 0.2249756
vt 0.09997559 0.2249756
vt 0.09997559 0.2249756
vt 0.09997559 0.2249756
vt 0.09997559 0.2249756
vt 0.09997559 0.2249756
vt 0.09997559 0.2249756
vt 0.09997559 0.2249756
vt 0.09997559 0.2249756
vt 0.09997559 0.2249756
vt 0.09997559 0.2249756
vt 0.09997559 0.2249756
vt 0.09997559 0.2249756
vt 0.09997559 0.2249756
vt 0.09997559 0.2249756
vt 0.09997559 0.2249756
vt 0.09997559 0.2249756
vt 0.09997559 0.2249756
vt 0.09997559 0.2249756
vt 0.09997559 0.2249756
vt 0.09997559 0.2249756
vt 0.09997559 0.2249756
vt 0.09997559 0.2249756
vt 0.09997559 0.2249756
vt 0.09997559 0.2249756
vt 0.09997559 0.2249756
vt 0.09997559 0.2249756
vt 0.09997559 0.2249756
vt 0.09997559 0.2249756
vt 0.09997559 0.2249756
vt 0.09997559 0.2249756
vt 0.09997559 0.2249756
vt 0.09997559 0.2249756
vt 0.09997559 0.2249756
vt 0.09997559 0.2249756
vt 0.09997559 0.2249756
vt 0.09997559 0.2249756
vt 0.09997559 0.2249756
vt 0.09997559 0.2249756
vt 0.09997559 0.2249756
vt 0.09997559 0.2249756
vt 0.09997559 0.2249756
vt 0.09997559 0.2249756
vt 0.09997559 0.2249756
vt 0.09997559 0.2249756
vt 0.09997559 0.2249756
vt 0.09997559 0.2249756
vt 0.09997559 0.2249756
vt 0.09997559 0.2249756
vt 0.09997559 0.2249756
vt 0.09997559 0.2249756
vt 0.09997559 0.2249756
vt 0.09997559 0.2249756
vt 0.09997559 0.2249756
vt 0.09997559 0.2249756
vt 0.09997559 0.2249756
vt 0.09997559 0.2249756
vt 0.09997559 0.2249756
vt 0.09997559 0.2249756
vt 0.09997559 0.2249756
vt 0.09997559 0.2249756
vt 0.09997559 0.2249756
vt 0.09997559 0.2249756
vt 0.09997559 0.2249756

g PROVINCECombined_Meshes_2759_0
usemtl PROVINCECombined_Meshes_2759_0
usemap PROVINCECombined_Meshes_2759_0
f 1/1/1 3/3/3 2/2/2
f 4/4/4 6/6/6 5/5/5
f 7/7/7 9/9/9 8/8/8
f 10/10/10 12/12/12 11/11/11
f 13/13/13 15/15/15 14/14/14
f 16/16/16 18/18/18 17/17/17
f 19/19/19 21/21/21 20/20/20
f 22/22/22 24/24/24 23/23/23
f 25/25/25 27/27/27 26/26/26
f 28/28/28 30/30/30 29/29/29
f 31/31/31 33/33/33 32/32/32
f 34/34/34 36/36/36 35/35/35
f 37/37/37 39/39/39 38/38/38
f 40/40/40 42/42/42 41/41/41
f 43/43/43 45/45/45 44/44/44
f 46/46/46 48/48/48 47/47/47
f 49/49/49 51/51/51 50/50/50
f 52/52/52 54/54/54 53/53/53
f 55/55/55 57/57/57 56/56/56
f 58/58/58 60/60/60 59/59/59
f 61/61/61 63/63/63 62/62/62
f 64/64/64 66/66/66 65/65/65
f 67/67/67 69/69/69 68/68/68
f 70/70/70 72/72/72 71/71/71
f 73/73/73 75/75/75 74/74/74
f 76/76/76 78/78/78 77/77/77
f 79/79/79 81/81/81 80/80/80
f 82/82/82 84/84/84 83/83/83
f 85/85/85 87/87/87 86/86/86
f 88/88/88 90/90/90 89/89/89
f 91/91/91 93/93/93 92/92/92
f 94/94/94 96/96/96 95/95/95
f 97/97/97 99/99/99 98/98/98
f 100/100/100 102/102/102 101/101/101
f 103/103/103 105/105/105 104/104/104
f 106/106/106 108/108/108 107/107/107
f 109/109/109 111/111/111 110/110/110
f 112/112/112 114/114/114 113/113/113
f 115/115/115 117/117/117 116/116/116
f 118/118/118 120/120/120 119/119/119
f 121/121/121 123/123/123 122/122/122
f 124/124/124 126/126/126 125/125/125
f 127/127/127 129/129/129 128/128/128
f 130/130/130 132/132/132 131/131/131
f 133/133/133 135/135/135 134/134/134
f 136/136/136 138/138/138 137/137/137
f 139/139/139 141/141/141 140/140/140
f 142/142/142 144/144/144 143/143/143
f 145/145/145 147/147/147 146/146/146
f 148/148/148 150/150/150 149/149/149
f 151/151/151 153/153/153 152/152/152
f 154/154/154 156/156/156 155/155/155
f 157/157/157 159/159/159 158/158/158
f 160/160/160 162/162/162 161/161/161
f 163/163/163 165/165/165 164/164/164
f 166/166/166 168/168/168 167/167/167
f 169/169/169 171/171/171 170/170/170
f 172/172/172 174/174/174 173/173/173
f 175/175/175 177/177/177 176/176/176
f 178/178/178 180/180/180 179/179/179
f 181/181/181 183/183/183 182/182/182
f 184/184/184 186/186/186 185/185/185
f 187/187/187 189/189/189 188/188/188
f 190/190/190 192/192/192 191/191/191
f 193/193/193 195/195/195 194/194/194
f 196/196/196 198/198/198 197/197/197
f 199/199/199 201/201/201 200/200/200
f 202/202/202 204/204/204 203/203/203
f 205/205/205 207/207/207 206/206/206
f 208/208/208 210/210/210 209/209/209
f 211/211/211 213/213/213 212/212/212
f 214/214/214 216/216/216 215/215/215
f 217/217/217 219/219/219 218/218/218
f 220/220/220 222/222/222 221/221/221
f 223/223/223 225/225/225 224/224/224
f 226/226/226 228/228/228 227/227/227
f 229/229/229 231/231/231 230/230/230
f 232/232/232 234/234/234 233/233/233
